<svg xmlns="http://www.w3.org/2000/svg" viewBox="0 0 419.25 398.07"><defs><style>.cls-1{fill:#cc78b1;}</style></defs><g id="Layer_2" data-name="Layer 2"><g id="Layer_2-2" data-name="Layer 2"><g id="Layer_11" data-name="Layer 11"><path class="cls-1" d="M374.27,33.79l1.27.61V246H356.4V29.17a52.48,52.48,0,0,1,12.37,2.45l1.12.39,1.16.43q.57.21,1.14.45C372.89,33.17,373.59,33.47,374.27,33.79Z"/><path class="cls-1" d="M380.21,297.3c1-.61,1.91-1.25,2.83-1.91C382.12,296.06,381.18,296.7,380.21,297.3Z"/><path class="cls-1" d="M395.66,282.34c.85-1.26,1.65-2.57,2.4-3.91Q397,280.44,395.66,282.34Z"/><path class="cls-1" d="M400.58,273.21c.59-1.44,1.13-2.91,1.6-4.41Q401.48,271.05,400.58,273.21Z"/><path class="cls-1" d="M402.52,267.67c.32-1.14.62-2.29.87-3.46C403.14,265.38,402.85,266.54,402.52,267.67Z"/><path class="cls-1" d="M404,260.66c0,.22-.07.44-.1.66l.09-.66Z"/><polygon class="cls-1" points="282.8 350.85 154.97 333.72 163.29 319.99 265.97 319.99 282.8 350.85"/><path class="cls-1" d="M70.58,29V246H53.81V30.63l.29-.07h.06c.36-.1.73-.18,1.09-.26l.28-.06.69-.15.72-.14c.51-.1,1-.19,1.54-.27l.8-.12.79-.11,1.37-.16.83-.07.86-.07.25,0h.26q.6,0,1.2-.06c.61,0,1.23,0,1.85,0Z"/><path class="cls-1" d="M355.74,14.39A19.25,19.25,0,0,0,337.23,0H89.75A19.23,19.23,0,0,0,71.27,14.31H66.69A66.75,66.75,0,0,0,0,81V253.31A66.75,66.75,0,0,0,66.68,320h79.4L105.54,386.9a7.36,7.36,0,0,0,6.3,11.17H312.92a7.36,7.36,0,0,0,6.45-10.87L282.71,320h69.86a66.75,66.75,0,0,0,66.68-66.68V81A66.78,66.78,0,0,0,355.74,14.39ZM85.28,19.34a4.57,4.57,0,0,1,4.47-4.63H337.23a4.57,4.57,0,0,1,4.47,4.67V39.71H85.28ZM341.7,54.42V244H263.43V54.42Zm-256.42,0H248.73V244H85.28ZM14.7,81c0-.45,0-.9,0-1.34s0-1,.06-1.47.05-.8.08-1.19.07-.85.12-1.27l0-.27q0-.54.12-1.08s0-.06,0-.09c0-.4.11-.8.17-1.2s.1-.66.16-1,.11-.63.18-.94.16-.88.26-1.31.14-.6.2-.9c0-.09.05-.17.07-.26.07-.29.14-.58.22-.86s.21-.81.33-1.21c.07-.23.13-.46.2-.69l.39-1.21c.11-.35.23-.69.35-1s.24-.68.37-1c.24-.65.5-1.3.76-1.93.17-.39.33-.77.51-1.15s.26-.58.4-.86.31-.64.47-1,.33-.66.5-1c0,0,0-.05,0-.08l.07-.13.38-.69c.34-.62.69-1.23,1.06-1.83.18-.3.37-.6.56-.9s.53-.83.81-1.24l.17-.25.11-.16c.23-.34.46-.66.7-1,.41-.56.83-1.12,1.26-1.67s.72-.9,1.1-1.34.61-.73.93-1.08.47-.53.71-.78.73-.77,1.1-1.15l.12-.13q1.07-1.08,2.19-2.07c.31-.29.62-.56.94-.83L34,40.58l.11-.08c.11-.09.21-.19.33-.27l.33-.26c.33-.26.67-.52,1-.76s.53-.4.8-.58.69-.49,1-.72.69-.47,1-.69l.73-.46.61-.37c.26-.17.53-.32.8-.47l1-.59.06,0c.37-.2.74-.4,1.11-.58s.92-.47,1.4-.7l.13-.06.74-.34c.38-.18.77-.35,1.16-.51s.78-.33,1.18-.48c.78-.31,1.57-.6,2.38-.87l1.22-.4c.4-.13.81-.25,1.22-.36l1.24-.34.11,0,.29-.07h.06c.36-.1.73-.18,1.09-.26l.28-.06.69-.15.72-.14c.51-.1,1-.19,1.54-.27l.8-.12.79-.11,1.37-.16.83-.07.86-.07.25,0h.26q.6,0,1.2-.06c.61,0,1.23,0,1.85,0h3.89V246H14.7ZM124.88,383.37,155,333.72,163.29,320H266l16.83,30.86,17.73,32.52ZM403.73,262.45c-.05.3-.11.59-.16.88l-.18.88c-.25,1.17-.55,2.32-.87,3.46-.11.38-.23.76-.34,1.13-.47,1.5-1,3-1.6,4.41a52.31,52.31,0,0,1-2.52,5.22c-.38.67-.76,1.33-1.16,2s-.82,1.3-1.24,1.93h0c-.29.42-.58.84-.88,1.25s-.75,1-1.13,1.53l-.54.67q-.25.33-.54.66c-.36.44-.73.87-1.11,1.3s-.76.85-1.16,1.26-.78.82-1.19,1.22l-.82.79q-.82.8-1.68,1.53c-.57.49-1.16,1-1.75,1.45s-1.2.94-1.82,1.38c-.92.66-1.86,1.3-2.83,1.91l-1,.6c-.65.39-1.31.77-2,1.13l-1,.53c-.67.35-1.36.69-2.06,1l-1.05.46c-.24.11-.47.21-.71.3s-.59.24-.89.36-.89.35-1.35.51l-1.36.47c-.73.25-1.47.47-2.22.68s-1.49.41-2.25.58-1.53.34-2.29.48a51.83,51.83,0,0,1-7.08.82c-.8,0-1.6.06-2.41.06H66.69c-.4,0-.8,0-1.2,0s-.71,0-1.07,0-.89,0-1.33-.07l-1.19-.1c-.29,0-.57-.05-.85-.09l-.75-.08-.24,0-.94-.13c-1.08-.16-2.14-.35-3.2-.58L55,304c-.57-.13-1.13-.27-1.69-.43s-1.18-.32-1.76-.5c-.37-.11-.74-.22-1.1-.35s-1-.33-1.48-.51l-.7-.26c-.41-.15-.8-.31-1.2-.48s-.63-.25-.93-.39-.87-.37-1.29-.57-.7-.33-1.05-.51l-.12-.06c-.56-.27-1.12-.55-1.67-.86l-1-.55c-.33-.19-.66-.38-1-.58s-.65-.39-1-.6-.64-.4-1-.61l-.92-.62,0,0c-.31-.21-.61-.42-.91-.65s-.62-.44-.92-.68-.6-.46-.9-.7-.59-.47-.88-.71c-.59-.49-1.16-1-1.72-1.49s-1.12-1-1.66-1.57l-.87-.88c-.24-.25-.48-.5-.71-.76s-.52-.56-.77-.84q-1.53-1.71-2.88-3.55c-.21-.27-.4-.54-.6-.82l-.72-1q-1.29-1.91-2.4-3.92c-.39-.7-.76-1.4-1.11-2.12-.16-.32-.32-.65-.47-1s-.33-.69-.48-1.05-.31-.71-.46-1.07q-.9-2.16-1.6-4.41c-.12-.37-.23-.75-.34-1.13s-.22-.76-.31-1.14-.2-.76-.29-1.15c-.19-.77-.36-1.55-.5-2.34s-.29-1.58-.41-2.38H404l-.09.66C403.87,261.7,403.8,262.08,403.73,262.45Zm.82-16.49H356.4V29.17a52.48,52.48,0,0,1,12.37,2.45l1.12.39,1.16.43q.57.21,1.14.45c.7.28,1.4.58,2.08.9l1.27.61,1.6.82,1.57.88c.48.28,1,.57,1.42.87a1,1,0,0,1,.17.1q.65.41,1.29.84l.31.21c.4.28.81.56,1.21.86.59.42,1.16.86,1.73,1.32.32.25.64.5,1,.77.81.67,1.6,1.37,2.36,2.09l.77.74A49.51,49.51,0,0,1,393.46,49c.33.41.65.83,1,1.26s.79,1.1,1.17,1.66.57.85.85,1.29l.09.14.87,1.43,0,.06c.28.48.56,1,.83,1.46a.59.59,0,0,1,0,.08c.24.45.48.9.71,1.36.58,1.14,1.11,2.31,1.6,3.5.17.4.33.8.48,1.21.06.14.11.27.16.41.13.34.25.68.37,1s.23.65.33,1,.32,1,.46,1.44l.39,1.4c.09.32.17.63.24.95.2.81.38,1.63.54,2.47.07.3.12.6.17.91s.1.54.14.82c.1.62.19,1.25.26,1.88,0,.33.08.66.11,1,.06.49.1,1,.14,1.5s.08,1.25.1,1.88,0,1.26,0,1.9Z"/><path class="cls-1" d="M238.82,114.48v-.18a4.91,4.91,0,0,0-.17-.78,1.46,1.46,0,0,0-.1-.34c0-.11-.14-.4-.22-.6l-.16-.34a4.58,4.58,0,0,0-.28-.54l-.2-.32a5.61,5.61,0,0,0-.38-.51l-.22-.28-.49-.5-.21-.2a5.42,5.42,0,0,0-.77-.59l-.15-.09a6.44,6.44,0,0,0-.73-.4h-.08l-61-28.12a7.34,7.34,0,0,0-6.15,0l-61.05,28.12h-.07a6.79,6.79,0,0,0-.75.41l-.13.08a5.42,5.42,0,0,0-.77.59l-.21.19-.49.51-.22.28a4.82,4.82,0,0,0-.38.51l-.2.32c-.1.18-.2.36-.28.54l-.16.34a4.84,4.84,0,0,0-.22.6,1.67,1.67,0,0,1-.11.34,5,5,0,0,0-.15.75v.21a6.08,6.08,0,0,0-.07,1v61a7.36,7.36,0,0,0,4.47,6.77l61,26.07a6.77,6.77,0,0,0,.75.28h.16a7.2,7.2,0,0,0,.78.16h.25a6.41,6.41,0,0,0,1.89,0h.25a6.33,6.33,0,0,0,.78-.16h.16a6.09,6.09,0,0,0,.75-.28l60.94-26.05a7.36,7.36,0,0,0,4.47-6.77V115.43C238.88,115.11,238.86,114.8,238.82,114.48Zm-61,76.92V146.34l35.58-15.2,10.77-4.6V171.6Zm-14.66,0-46.38-19.78V126.54l41,17.48,5.42,2.32Zm-8.78-64.75-26.86-11.47L170.48,95.4l1.75.78h0l0,0,41.12,19-36.75,15.68-6.18,2.64Z"/><path class="cls-1" d="M328.44,98.53a7.35,7.35,0,0,1-7.35,7.35H283.28a7.35,7.35,0,1,1,0-14.7h37.81A7.35,7.35,0,0,1,328.44,98.53Z"/><path class="cls-1" d="M328.48,135.78a7.36,7.36,0,0,1-7.35,7.36H283.32a7.36,7.36,0,0,1,0-14.71h37.81A7.35,7.35,0,0,1,328.48,135.78Z"/></g></g></g></svg>