<svg xmlns="http://www.w3.org/2000/svg" viewBox="0 0 357.09 326.85"><defs><style>.cls-1,.cls-2{fill:#cc78b1;}.cls-2{stroke:#cc78b1;stroke-miterlimit:10;stroke-width:5px;}</style></defs><g id="Layer_2" data-name="Layer 2"><g id="Layer_3" data-name="Layer 3"><g id="Layer_11" data-name="Layer 11"><path class="cls-1" d="M190.91,156.58v-.07h0Zm152.59,56.5a1.89,1.89,0,0,1-.05.23l0,.12c0,.1-.05.2-.07.31.06-.21.11-.4.15-.61a.55.55,0,0,0,0-.17Zm-.76,2.95s0,.05,0,.08-.09.31-.13.46c0-.14.09-.27.13-.4s.07-.26.1-.4C342.8,215.85,342.77,215.94,342.74,216ZM190.89,156.51l0,.07v-.07Zm0,0,0,.07v-.07ZM343.5,213.08a1.89,1.89,0,0,1-.05.23l0,.12c0,.1-.05.2-.07.31.06-.21.11-.4.15-.61a.55.55,0,0,0,0-.17Zm-.76,2.95s0,.05,0,.08-.09.31-.13.46c0-.14.09-.27.13-.4s.07-.26.1-.4C342.8,215.85,342.77,215.94,342.74,216ZM190.89,156.51l0,.07v-.07ZM343.5,213.08a1.89,1.89,0,0,1-.05.23l0,.12c0,.1-.05.2-.07.31.06-.21.11-.4.15-.61a.55.55,0,0,0,0-.17Zm-.78,3c-.05.16-.09.31-.13.46,0-.14.09-.27.13-.4s.07-.26.1-.4c0,.08-.05.17-.08.26S342.73,216.08,342.72,216.11ZM300.28,0H56.8A56.86,56.86,0,0,0,0,56.79V203.56a56.87,56.87,0,0,0,56.8,56.8h67.62l-34.53,57a6.26,6.26,0,0,0,5.37,9.5H266.51a6.27,6.27,0,0,0,5.51-9.26L240.8,260.34h59.48a56.87,56.87,0,0,0,56.81-56.8V56.79A56.86,56.86,0,0,0,300.28,0ZM256,314.33H106.36l32.71-54h87.46Zm87.59-101.48a.24.24,0,0,0,0,.08,0,0,0,0,1,0,0l0,.12a1.89,1.89,0,0,1-.05.23l0,.12c0,.1-.05.2-.07.31h0a.29.29,0,0,1,0,.09l0,.08c-.06.28-.13.55-.2.82l-.15.55-.06.22-.08.26c0,.08-.05.17-.08.26s0,.05,0,.08-.09.31-.13.46l-.06.19v0a3.37,3.37,0,0,1-.1.34,1.72,1.72,0,0,1-.07.21c-.08.3-.19.6-.3.9s-.29.81-.44,1.21c-.39,1-.82,2-1.28,3a44.87,44.87,0,0,1-3.68,6.35c-.7,1-1.43,2-2.21,2.92-.33.4-.68.81-1,1.2l-.22.25c-.8.88-1.62,1.73-2.48,2.54l-1.06,1-.38.33q-.55.48-1.11.93c-.38.31-.76.6-1.15.9l-.25.19c-.43.32-.87.63-1.32,1h0c-.53.38-1.06.73-1.61,1.07s-1.11.68-1.68,1-1.13.63-1.7.92h0c-.58.29-1.16.58-1.75.85h0l-1.17.52-1,.41h0l-.16.06h0l-.6.22-.46.17-.15,0h0l-.3.1-.92.31-1.66.5c-1,.26-1.92.5-2.89.71-1.31.27-2.63.48-4,.64l-1.26.13c-.42,0-.84.07-1.27.09s-.83.05-1.25.06h0l-1.28,0H56.79l-1.15,0-.91,0q-.49,0-1-.06c-.33,0-.66,0-1-.08h-.1c-.32,0-.63-.06-.94-.1l-.94-.11a42.65,42.65,0,0,1-5-1c-.32-.08-.64-.16-1-.26-1.2-.33-2.37-.71-3.52-1.15-.35-.12-.69-.26-1-.4a41.67,41.67,0,0,1-5.38-2.6c-.28-.15-.56-.32-.84-.49-1.11-.66-2.19-1.37-3.24-2.14-.51-.36-1-.75-1.52-1.15q-.39-.3-.78-.63c-.25-.2-.49-.41-.74-.63-1-.84-1.92-1.73-2.82-2.66-.45-.47-.89-.94-1.31-1.43-.22-.24-.43-.48-.64-.73-.42-.49-.83-1-1.23-1.51s-.79-1-1.16-1.57-.74-1.06-1.09-1.61l-.52-.83c-.35-.56-.67-1.12-1-1.7s-.62-1.15-.91-1.74-.58-1.19-.84-1.79c-.19-.43-.38-.85-.54-1.29s-.33-.81-.48-1.22a4.24,4.24,0,0,1-.18-.5A44.24,44.24,0,0,1,13,209.82H344.11c-.07.47-.14.94-.23,1.4,0,.18-.06.37-.1.55h0c0,.18-.07.35-.1.53S343.6,212.67,343.56,212.85Zm1-15.53H203.26l-50.66,0H12.52V56.79A44.32,44.32,0,0,1,56.8,12.52H300.28a44.32,44.32,0,0,1,44.28,44.27ZM190.91,156.58v-.07h0ZM342.74,216s0,.05,0,.08-.09.31-.13.46c0-.14.09-.27.13-.4s.07-.26.1-.4C342.8,215.85,342.77,215.94,342.74,216Zm.76-2.95a1.89,1.89,0,0,1-.05.23l0,.12c0,.1-.05.2-.07.31.06-.21.11-.4.15-.61a.55.55,0,0,0,0-.17ZM190.89,156.51l0,.07v-.07Zm0,0,0,.07v-.07ZM342.74,216s0,.05,0,.08-.09.31-.13.46c0-.14.09-.27.13-.4s.07-.26.1-.4C342.8,215.85,342.77,215.94,342.74,216Zm.76-2.95a1.89,1.89,0,0,1-.05.23l0,.12c0,.1-.05.2-.07.31.06-.21.11-.4.15-.61a.55.55,0,0,0,0-.17Zm-.05.23,0,.12c0,.1-.05.2-.07.31.06-.21.11-.4.15-.61A1.21,1.21,0,0,0,343.45,213.31Z"/></g><path class="cls-2" d="M96.81,120.8,147,92.55v6.66l-43.62,24.07L147,148.37v6.56L96.81,126Z"/><path class="cls-2" d="M162.35,160.58l31.87-86H200l-31.86,86Z"/><path class="cls-2" d="M265.52,126.67l-50.17,28.26v-6.67L259,124.19,215.35,99.1V92.55l50.17,28.93Z"/></g></g></svg>