<svg xmlns="http://www.w3.org/2000/svg" viewBox="0 0 714.33 1531.15"><defs><style>.cls-1{fill:#f68d1e;}.cls-2{fill:#cb7620;}.cls-3{fill:#162340;}.cls-4{fill:#427149;}.cls-5{fill:#4295d1;}.cls-6{fill:#010101;}.cls-7{fill:#f5a493;}.cls-8{fill:#f4a693;}.cls-9{fill:#f49483;}.cls-10{fill:#f5a593;}.cls-11{fill:#f49d8a;}.cls-12{fill:#2b2238;}.cls-13{fill:#f49987;}.cls-14{fill:#f49786;}.cls-15{fill:#f4a08d;}.cls-16{fill:#f4a390;}.cls-17{fill:#f59187;}.cls-18{fill:#ca897e;}.cls-19{fill:#2e111c;}.cls-20{fill:#f49886;}.cls-21{fill:#f48c1e;}.cls-22{fill:#1a0f21;}.cls-23{fill:#f49589;}.cls-24{fill:#d3d1d3;}.cls-25{fill:#201626;}.cls-26{fill:#fce5e0;}.cls-27{fill:#fceeeb;}.cls-28{fill:#f59181;}.cls-29{fill:#f49a88;}.cls-30{fill:#f49e8c;}.cls-31{fill:#f49d8b;}.cls-32{fill:#f27f7c;}.cls-33{fill:#29101d;}.cls-34{fill:#24101f;}.cls-35{fill:#2f121c;}.cls-36{fill:#f27b79;}.cls-37{fill:#1f1021;}.cls-38{fill:#f4a593;}.cls-39{fill:#f49f8c;}.cls-40{fill:#f49785;}.cls-41{fill:#cd787b;}.cls-42{fill:#cc6a6c;}.cls-43{fill:#cc797b;}.cls-44{fill:#f4a292;}.cls-45{fill:#f29482;}.cls-46{fill:#ce6f70;}.cls-47{fill:#e35946;}.cls-48{fill:#cb6f72;}.cls-49{fill:#eb6c5b;}.cls-50{fill:#f29181;}.cls-51{fill:#c76e71;}.cls-52{fill:#e08475;}.cls-53{fill:#d8a9bb;}.cls-54{fill:#2a1625;}.cls-55{fill:#b06a5e;}.cls-56{fill:#f49c89;}.cls-57{fill:#f3847f;}.cls-58{fill:#f48b83;}.cls-59{fill:#324465;}.cls-60{fill:#345278;}.cls-61{fill:#2e3450;}.cls-62{fill:#324667;}.cls-63{fill:#32486b;}.cls-64{fill:#33496c;}.cls-65{fill:#324466;}.cls-66{fill:#32476a;}.cls-67{fill:#334a6e;}.cls-68{fill:#324769;}.cls-69{fill:#334d71;}.cls-70{fill:#e9e9e9;}.cls-71{fill:#cbcbcb;}.cls-72{fill:#555;}.cls-73{fill:#f39d8a;}.cls-74{fill:#f49887;}.cls-75{fill:#f28e7f;}.cls-76{fill:#f06e5e;}.cls-77{fill:#ef907f;}.cls-78{fill:#f09c89;}.cls-79{fill:#eb8374;}.cls-80{fill:#e38c81;}.cls-81{fill:#de8780;}.cls-82{fill:#e79082;}.cls-83{fill:#ec9483;}.cls-84{fill:#f4a18e;}.cls-85{fill:#d6807e;}.cls-86{fill:#f09884;}.cls-87{fill:#f06665;}.cls-88{fill:#6e1b4e;}.cls-89{fill:#eb6b56;}.cls-90{fill:#eac4c5;}.cls-91{fill:#dd787f;}.cls-92{fill:#d47e7b;}.cls-93{fill:#c691b2;}.cls-94{fill:#d57572;}.cls-95{fill:#2e102f;}.cls-96{fill:#b9a1c3;}.cls-97{fill:#d6716e;}.cls-98{fill:#2f1030;}.cls-99{fill:#a790bb;}.cls-100{fill:#bb9ec0;}.cls-101{fill:#895a8a;}.cls-102{fill:#f06868;}.cls-103{fill:#e27d7a;}.cls-104{fill:#ef8775;}.cls-105{fill:#d64159;}.cls-106{fill:#f39685;}.cls-107{fill:#6a1646;}.cls-108{fill:#db737c;}.cls-109{fill:#de7a71;}.cls-110{fill:#d45951;}.cls-111{fill:#e68073;}.cls-112{fill:#e3715f;}.cls-113{fill:#e16f6f;}.cls-114{fill:#dc847c;}.cls-115{fill:#caaeca;}.cls-116{fill:#c86574;}.cls-117{fill:#f39d8b;}.cls-118{fill:#bc3b55;}.cls-119{fill:#d76a70;}.cls-120{fill:#48264a;}.cls-121{fill:#751e56;}.cls-122{fill:#be2e48;}.cls-123{fill:#f6c9d6;}.cls-124{fill:#f0868c;}.cls-125{fill:#fc8e92;}.cls-126{fill:#f8d7e5;}.cls-127{fill:#462549;}.cls-128{fill:#e6c0c3;}.cls-129{fill:#b899bd;}.cls-130{fill:#f49c8a;}.cls-131{fill:#d9b0c0;}.cls-132{fill:#e07c73;}.cls-133{fill:#caacc7;}.cls-134{fill:#cc6e7a;}.cls-135{fill:#9c6486;}.cls-136{fill:#1a081b;}.cls-137{fill:#220d25;}.cls-138{fill:#a68eb8;}.cls-139{fill:#d4bcd5;}.cls-140{fill:#df7970;}.cls-141{fill:#baa2c5;}.cls-142{fill:#d65042;}.cls-143{fill:#c35a6d;}.cls-144{fill:#1a081a;}.cls-145{fill:#432346;}.cls-146{fill:#412145;}.cls-147{fill:#c7afc9;}.cls-148{fill:#3e1631;}.cls-149{fill:#e3706f;}.cls-150{fill:#922d49;}.cls-151{fill:#812646;}.cls-152{fill:#29122f;}.cls-153{fill:#c82949;}.cls-154{fill:#cf6166;}.cls-155{fill:#4b274b;}.cls-156{fill:#2b1330;}.cls-157{fill:#f8b5a9;}</style></defs><g id="Layer_2" data-name="Layer 2"><g id="Layer_1-2" data-name="Layer 1"><path d="M428.71,0c3.64,2.2,8,1.86,11.87,3.2,6.19,2.14,12.43,4.09,17.24,8.89,1.52,1.51,3.51,3.37,2.74,5.43-2.41,6.42,3.65,7.36,6.27,10.5.82,1,1.67.56,2.78.08,8.74-3.84,13.76-1.77,17.45,7,.46,1.11.35,2.52,1.63,3.21,4.49-4.58,7.07-4.21,9.48,1.74,2.76,6.85,4.84,13.9.11,20.76-1.84,2.67.13,4.23,1.08,6.13,2.28,4.53,5.68,8.9,1.6,14.14-.87,2.74-.07,5.2,1.23,7.59,2.66,4.87,2.75,10.15,2.36,15.49a8.26,8.26,0,0,1-1.32,4c-3.77,5.74-5.22,12.35-7,18.83-1.37,2.06-2.87,3.94-5.55,4.29-2.05.17-4.13-.31-5.12-2-2.6-4.51-6-3.88-9.88-2.16-1.11.49-2.31.81-3.47,1.19-3,1.13-6.06,2.24-9,3.66-.9.46-1.81.91-2.71,1.38a97.36,97.36,0,0,0-10.19,5.42c-2.85,1.9-4.56,1.53-4.65-2.25,1.8-6,2.28-12.59,8.43-16.51,2.41-1.53,1.6-4.29.33-6.25-3.8-5.87-7.35-11.75-7-19.14a1.93,1.93,0,0,0-2-2.13c-6.74,0-9.27-5-12-9.82-.76-1.57-1.24-3.26-1.94-4.86s-1.73-2.62-3.61-1.47c-5.15,3.12-8.51.19-11.67-3.45-1.41-1.48-2.22-5-4.08-4.27-3.81,1.4-8.89-.53-11.52,4.11-.6,1.07-1.33,2.08-2,3.13A46.17,46.17,0,0,1,394.92,81c-2.33,2.61-4.7,3.18-7.91,1.11-4.5-2.9-12.94,1.21-13.45,6.4-.6,6.11-3.08,10.58-9.68,11.47-2.69.36-3.11,1.65-2.53,4,.44,1.79.34,4.08-1.42,4.76-4.24,1.63-2.75,4.35-1.55,6.8,3.73,7.61,1.86,16.09,3.89,24.2,0,.45,1.13-.23.43-.09-.27.05-.38-.09-.32-.41,1-6,3.33-8.54,8.91-9.55,8.8-1.59,17.65-.95,26.49-.38,3.44.22,5.22,2.68,7.05,5.11,1.17,1.56,2.36,3.1,3.45,4.73s2.18,3.4,2,5.56c-.88,2.8-3,1.81-4.81,1.48-5.36-1-10.71-2-16.2-1.71-5.18.37-10.25-2.21-15.48-.58-5.33.26-9.6,1.71-10.71,8-.43,2.38-2.65,3.64-5.21,3.77a5.37,5.37,0,0,1-2.45-.82c-5.8-3.38-8.34-2.41-10.2,3.88-1.84,2.37-.15,3.84,1.37,5.35,3.59,3.43,4.14,8.08,5.05,12.58.45,2.22-.72,3.71-2.5,4.84-2.15.87-2.2,3.42-3.78,4.75a6,6,0,0,1-6.26,1.16c-3.26-2-5.46-4.63-5.56-8.63-.45-2.65.28-6-3.77-6.55-2.43-.14-4.87.16-7.25-.52a9,9,0,0,1-4.2-2.77c-2.1-2.81-1.58-6.24-2.24-9.4,3.16-6.16,0-10.57-4.1-14.72l-.48-.49c-2,0-2.71,3.4-5.27,2.24-2.08-.95-1.36-3.06-2-4.6a20.36,20.36,0,0,1,.4-12.48c1.66-4.85,2.23-9.44-.14-14.13-1-3.67.5-7,1.52-10.34a97.51,97.51,0,0,1,19-35.42c2.12-2.48,4-5.54,7.79-6,2.64,1.61,1.08,3.79.54,5.61-2.36,8-6,15.53-9.9,22.94-2.5,4.78-1.67,6,3.62,5.69a31.79,31.79,0,0,0,7.29-1.49c7.12-2.13,9.16-6,6.34-12.85-1.1-2.66-1.24-4.68,1-6.65a6.14,6.14,0,0,0,2-3.1c.88-3.58,3.28-4.79,6.71-4.66a11.77,11.77,0,0,0,3.68-.46c6-1.69,7.68-6.31,4.19-11.43-1.28-1.88-3.39-3.22-3.71-5.72.83-2.77,2.73-5,3.77-7.68-.23-6.89-.69-13.82,1.81-20.44,2.28-6.05,4.55-12.24,13.13-10.72,1.8.32,2.09-1.63,2.95-2.62,2.1-2.42,4.91-4.63,7.78-3.35,5.16,2.3,9.93-.24,14.75.08,7.92.51,13.94-3.36,20.35-6.68Z"/><path class="cls-1" d="M569.28,486.57c8.66,19.4,17.44,38.74,25.94,58.21,6,13.79,11.87,27.66,16.92,41.85.52,2.31-.64,4.12-1.8,5.92a458.62,458.62,0,0,1-46.46,60.31c-11.87,13-24.69,25-37.78,36.76a12.5,12.5,0,0,0-4,8.46c-1.79,17.66-3.53,35.32-4.57,53.06-1.59,27.13-2.41,54.27-3.43,81.42-.65,17.42-.35,34.82-.7,52.22-.13,6.08,1.71,12,2.47,17.94.29,2.26,1.12,4.59-.87,6.54-3.28,4.61-2.32,10.14-3,15.24-5,35.86-9.63,71.79-18.26,107-2.25,9.14-4.87,18.17-10.35,26.06-9.41,13.53-23.83,18.07-42.54,14.22-15-3.09-28.08-10.67-41.59-17.16q-104.8-50.31-209.41-101c-3-1.44-4.35-1.46-6,1.82-5.63,11.33-5.77,11.24-16.9,5.73-7.16-3.54-14.26-7.21-21.55-10.43-3.55-1.57-4-3.17-2.66-6.78,8.42-22.42,16.55-44.94,24.74-67.45.53-1.47,1.42-2.91,1.06-4.61-.3-3.54,1.6-6.48,2.71-9.62,4.81-13.69,9.91-27.28,14.95-40.88.67-1.81,1.1-3.78,2.81-5,3.52-9.25,7.15-18.47,10.5-27.78,1-2.76,1.91-3.53,4.83-2.22,16.16,7.26,32.42,14.32,48.64,21.45,2.07.91,4.58,1.43,2.6,4.79-1.62,2.75,1.33,2.8,2.64,3.35Q292,830.09,326,844.05c5.85,2.42,11.72,4.81,18,7.39-1.71-16.43-2.82-32.36-5.12-48.12C327.34,724.48,341,650,376.37,579a510.36,510.36,0,0,1,27.89-49.63c5.08-7.85,6.65-17.14,10.08-25.67.46-1.13,1-2.23,1.48-3.34,6.4-1.67,12.67.44,18.95.88a309.68,309.68,0,0,0,40.3,0c22.72-1.36,45-5.17,67.25-9.73,6.94-1.42,13.84-3,20.73-4.7C565.09,486.29,567.16,485.56,569.28,486.57Z"/><path class="cls-2" d="M515,909.26c.2-4.83-1.53-9.4-2-14.12a349.48,349.48,0,0,1-.18-60.52,33.17,33.17,0,0,0,.06-3.73c-.69-16.87.77-33.69,1.31-50.52.65-20.65,2.54-41.27,4.14-61.88.61-7.9,2-15.73,2.8-23.62.31-3,2-4.87,4-6.6,8.13-6.85,16.05-13.93,23.53-21.48a463.17,463.17,0,0,0,61.73-76.86c.67-1,1.16-2.2,1.74-3.3,5.57,11.1,9.39,22.91,13.59,34.54,26.44,73.11,48.63,147.46,64.49,223.63a1173.24,1173.24,0,0,1,19,121.38c.23,2.3.62,4.57.94,6.86,1.38,15,3.34,29.84,3.82,44.91a548.66,548.66,0,0,1-.76,56.35c-1,13.72-2.17,27.46-4.42,41.07-.75,4.47-1.14,9-1.95,13.49-4.67,26.94-10.27,53.67-17.39,80.08-8.22,30.51-18.36,60.39-29.3,90-.35,1-.62,2-1.06,3.38,5.43-.68,5.63,1.87,4.29,5.8-.78,2.32-.88,4.86-1.29,7.31a131.51,131.51,0,0,1-3.43,20.1c-.58,2.38-1,4.84-2.79,6.71-2.17,9.11-4.73,18.16-6.37,27.37-1,5.31-3,6.34-8,5.36-15.79-3.07-31.67-5.66-47.52-8.44-4.25.82-8.42-.19-12.62-.51-3.46,0-6.5-2-9.94-2.09-2.3-.23-4.52-.93-6.83-1.1-9.09-1.35-18.07-3.27-27.14-4.71a11.92,11.92,0,0,1-5.46-1.87c-11.41-3.41-23.23-4.67-34.91-6.61-5-.84-7.06-2.29-6.15-8,1.47-9.09,2-18.36,2.56-27.57.19-3.09,1-4.6,4.24-4.34,3.06.24,4.12-1.41,4.78-4.34q22.44-100.53,45.18-201c1-4.27-.24-8.15-.92-12.09q-15.69-90.76-31.64-181.5A14,14,0,0,1,515,909.26Z"/><path class="cls-3" d="M591.35,364.8c7.55,20.85,12.58,42.38,17.25,64,.81,3.78.38,5.92-3.53,7.8-12.73,6.09-25.23,12.68-37.82,19.08a13,13,0,0,1-4.72,3.37C528.11,474.89,493,488.76,455.62,496a146.37,146.37,0,0,1-33.87,2.66c-1.93-.08-3.95.2-5.53-1.33-12,.05-18.52-6.18-23.54-17.11-10-21.7-21.63-42.63-32.63-63.86-.45-.88-.54-2.13-2.31-2.63-8.65,10.42-17.41,21-26.24,31.58-1.19,1.42-2,3.42-4.18,3.74-2.07-.12-3.52-1.37-5-2.66C307.59,433.69,293,420.81,278,408.44c-1.62-2.35-5.09-3-5.68-6.32l-8.74-7.75c-1.22-1.09-2.14-2.07-1-4,17.21-27.83,35.93-54.29,65.19-71,8.68-4.93,18.64-6.65,28-10,4.84-1.72,9.85-3,14.67-4.73,5-1.86,10-3.5,15.37-1.79,5.26-.25,10.21,1.58,15.33,2.26,4.91,1.16,9.93,1.49,14.91,2.06,4.49,1,9.06.41,13.58.63,5.37-.07,10.75.2,16-.91a40.12,40.12,0,0,0,17.35-6.18c7.6-5.19,12-12.22,12.31-21.57.05-1.4.14-2.85,1.51-3.74,15.56-6.19,31.17-8.65,48.07-4.75,13.87,3.2,28.34,3.81,42.55,5.57,5.09.64,10.16,1.68,15.26,1.82,3.64.1,4,1.9,3.82,4.6a5.39,5.39,0,0,1,1.2,4c-1.13,14.08-1,28.24-2.35,42.3-.91,9.83-1.44,19.38,4.16,28.2A10.64,10.64,0,0,1,591.35,364.8Z"/><path class="cls-4" d="M108.9,826.71,89.77,844c-.45-.27-.5-.9-1-1.12.35.36.67.74,1,1.07-2.32,4.15-6.44,6.76-9.86,9.51-15,12.11-29.44,25.08-45.57,35.79C25.25,895.34,16.44,902,5.44,904.5c.72-7.22,5.49-12.61,8.79-18.55C37,845,60.11,804.12,82.93,763.14c2.83-5.07,5.12-10.53,9.2-14.84,8.9,7.59,17.76,15.23,26.74,22.73,1.93,1.61,3.3,3.16,2.61,5.81,0,1.4.45,2.77.09,4.19-3.61,14.36-6.84,28.82-11,43A5,5,0,0,1,108.9,826.71Z"/><path class="cls-5" d="M577.79,1428.63q2.76,3.15,5.53,6.28a15.54,15.54,0,0,1-2.4,1.62,21.86,21.86,0,0,0,2.49-1.53c10.58,8.44,19.4,18.69,28.68,28.44,14.39,15.15,28.36,30.69,39.84,48.24,2.5,3.81,5.2,7.59,5.94,12.27-2,1.19-3.78.21-5.54-.61q-42-19.52-84.16-38.82c-19.35-8.9-38.65-17.93-58.06-26.73-1.91-.87-4.12-1.35-4.85-3.75,5.6-12.28,11.51-24.4,18.16-36.16,3.05-1.82,6.24-.51,9.28-.17,7.5.84,15,1.76,22.46,3a47.93,47.93,0,0,1,8.68,1.09,53.38,53.38,0,0,1,8.23,1.39A8.47,8.47,0,0,1,577.79,1428.63Z"/><path class="cls-6" d="M355.15,51.16a38.41,38.41,0,0,0,3.08,3.62c3.23,3,4.49,6.82,2.83,10.62-1.57,3.61-5.47,5.14-9.34,4.91s-6.42.57-7.07,4.89a5.06,5.06,0,0,1-2.16,2.91c-1.85,1.26-1.95,2.13-.79,4.21,4,7.11,1.55,12.62-6.29,15.07A31,31,0,0,1,325,99.26c-5.62-.19-6.39-1.43-3.68-6.28a124.11,124.11,0,0,0,10.89-24.79c.41-1.34,1.87-2.81.18-4.31-12.43,4-21.14,12.21-26.17,24.1-2.55,6-3.9,12.43-2.29,19.15a12.81,12.81,0,0,1,0,7.21c-.62.32-1.26.6-1.85,1-16.8,10.66-31.36,6.17-39-12.23-6-14.54-5.58-29.19.85-43.42a27,27,0,0,1,12.08-12.4,13.17,13.17,0,0,0,5.83-6.43c4.65-9.53,10.77-17.68,22.19-19.5s20.16,3.32,25.39,14.78a73.43,73.43,0,0,1,4.66,15.15c5.46-3.62,11.09-2.63,16.74-1.11A4.08,4.08,0,0,1,355.15,51.16Z"/><path class="cls-7" d="M103.7,655.19c-2.86,6.28-5.65,12.59-8.63,18.8-.88,1.84-2.12,4.75-4.2,4.06s-1.78-3.85-1.56-6.07c.83-8.43,1.75-16.86,2.64-25.29.7-2.32.7-2.32-1-2.16-5.32,10.69-9.45,22-17.28,31.54-1-11.52,3.62-22.1,4.46-33.49-2.63,4.31-5.16,8.68-7.92,12.9-1,1.51-2.11,4.18-4.2,3.21-1.85-.87-1-3.61-.57-5.37A104.24,104.24,0,0,1,79.18,620.1c3.16-4.85,7-5.35,11.86-3.9a66.81,66.81,0,0,1,19.42,9.69c3.18,2.24,5,2.08,7.42-1.51,10.91-16.26,22.21-32.28,33.39-48.37a6.26,6.26,0,0,1,1.21-1c3.51-.47,4.32,1.18,3.69,4.36-1.22,6.22-2,12.5,2.16,18,1.92,2.55,3.32,5,2,8.29-.58,1.45.49,2.69.86,4,1,3.6,1.72,7.28-.75,10.69-2.94,4.08.49,7.69.89,11.52-7.18,7.82-14.21,15.8-21.59,23.43-10,10.34-13.45,10.55-25.35,2-1.22,4.38-2.21,8.64-3.62,12.76s-2.14,8.58-5.61,12.65c-3-8.14.45-15.82-.41-23.35.84-1.66.44-3.37.11-5,0-.12.46-.9-.26-.47C104.24,654.19,104.06,654.82,103.7,655.19Z"/><path class="cls-8" d="M161.34,632c-4-4.34-5.58-8.77-.81-13.7,1.5-1.55.08-3.63-.35-5-1.9-6,.75-13.06-5-18.19-2.57-2.3-2-10.7.1-12.44-.5-2-2.73.81-3.26-1.14,4.85-3.21,4.88-3.58.42-6.47,9.84-14.26,19.61-28.56,29.57-42.74,4.26-6.07,7.94-12.55,12.91-18.11,2.83-1.22,3.7.92,3.9,2.79.57,5.28,1.84,10.44,2.6,15.68,2.37,16.28,2.85,32.88,7.37,48.83C193.09,598.37,177.94,615.85,161.34,632Z"/><path class="cls-7" d="M108.9,826.71q5.56-25.12,12.58-49.87l61.1,36c-7.86,14.69-14.72,29.87-22.49,44.6-1,1.86-1.27,4.59-4.3,4.65q-21.06-16.05-42.12-32.1C112.13,828.86,110.49,827.81,108.9,826.71Z"/><path class="cls-6" d="M316.74,159c2.12,3,.59,6.87,2.34,10a9.88,9.88,0,0,1,2.34,5.2A54.9,54.9,0,0,0,327,191.22c1.21,3.3,3.51,5.9,5.54,8.68,2.26,2.91,5.29,5.11,7.45,8.11,1.48,2.88,3.29,5.43,6.31,6.93,2.2,1.09,4.51,1.64,6.52.06,3.64-2.87,6-1.42,8.27,1.79,1.31,1.85,3.33,3.24,3.47,5.8-.2,2.51.54,4.88,1,7.29,2.75,13.79-5.74,23.14-19.82,21.85-7.4-.08-14.67-.53-19.46-7.44a2.58,2.58,0,0,0-2.32-1c-7.05-.29-11.32-4.77-14.48-10.3-6-10.39-9.15-21.55-7.23-33.63.35-2.18-.44-3.18-1.63-4.57-7.27-8.51-8.44-25.41-2.6-34.93a9.74,9.74,0,0,1,5.89-4.17c2.45-1,4.46.38,6.42,1.38A15.49,15.49,0,0,0,316.74,159Z"/><path class="cls-2" d="M416.22,497.32c37.52,1.65,72.27-9.81,106.58-22.93,15-5.73,29.65-12.44,44.45-18.7q1,15.44,2,30.88C554.1,491.25,538.51,494.18,523,497c-26.41,4.77-53.06,7.63-80,6.46-9.08-.39-18.27-.75-27.18-3.08C416,499.36,416.08,498.34,416.22,497.32Z"/><path class="cls-9" d="M278.47,407.43c16.7,13.39,32.76,27.52,48.86,41.61-12.56,14.19-24.36,29-37.5,42.72-3.84-.46-3.79-3.66-4.38-6.34-2.26-10.24-2.45-20.77-4.33-31.09-2.27-12.39-4.39-24.83-5.63-37.38C275.14,413.4,274.87,409.78,278.47,407.43Z"/><path class="cls-10" d="M555.55,1422l-32.13-4.12,8.52-61.61c11.26.55,22.14,3.47,33.19,5.33,1.54,6.61-1.45,12.77-2,19.18-1.06,12.23-4.82,24-6,36.29C556.89,1418.81,557,1420.64,555.55,1422Z"/><path class="cls-11" d="M255.12,530.6a189.17,189.17,0,0,1-19.44,21c-2.73.12-3.1-2-3.47-3.88-1.91-9.58-3.12-19.27-4.43-28.94-1.46-10.72-2.69-21.48-4.69-32.12-.68-3.63-2.26-7.17-1.3-11,6.38-10.15,13.35-19.88,20.43-29.54a3.41,3.41,0,0,1,2.26,3.32c.05,5,1.79,9.78,2.3,14.72,1.3,12.71,3,25.38,4.73,38C252.79,511.64,254.88,521,255.12,530.6Z"/><path class="cls-12" d="M505.26,1454q59.36,27.36,118.72,54.68c11.26,5.17,22.28,10.86,33.89,15.23-1.66,7.78-3,8.53-9.68,5.66q-72-30.75-144.1-61.38c-4.26-1.8-5.5-3.36-2.72-7.31C502.87,1458.78,504,1456.34,505.26,1454Z"/><path class="cls-12" d="M92.13,748.3C87.37,759.4,80.79,769.52,75,780Q40.33,842.35,5.44,904.5c-6.58-4.91-6.68-5-3-11.93C29.11,842,55.83,791.35,82.78,740.29Z"/><path class="cls-13" d="M255.12,530.6c-2.74-5.35-2.24-11.34-3.26-17-1.64-9.13-3.31-18.32-3.85-27.56-.44-7.38-2.53-14.43-3-21.82a97.52,97.52,0,0,0-2.81-18.1l17-24.47c2.93,4.69,2.27,10.18,3.4,15.26,2.53,11.38,3.05,23.05,4.66,34.56,1.55,11,2.52,22.08,5.71,32.79.69,2.32-.49,4.52-.34,6.81a107.17,107.17,0,0,1-13.16,14.36A58.13,58.13,0,0,0,255.12,530.6Z"/><path class="cls-14" d="M272.7,511.05c-1.43-4.08-1.41-8.44-2.68-12.61-3-9.93-2.21-20.61-4.7-30.52-2.12-8.45-.76-17.08-3.54-25.48-2.15-6.5-1.76-13.84-2.51-20.81l13.09-19.51c2.23,1.55,4.5,3.05,6.11,5.31-3.68,8-.51,15.85.56,23.7,1.41,10.35,3.79,20.6,5.15,30.89,1,7.85,2.13,15.83,2.75,23.8.19,2.4.86,4.49,2.9,5.94C285.14,499.09,277.85,504.12,272.7,511.05Z"/><path class="cls-15" d="M221.79,475.64c3.4,9.13,4.2,18.75,5.49,28.3,2,15.1,4.29,30.18,6.47,45.27a3.18,3.18,0,0,0,1.93,2.37c-4.12,7.15-11,11.84-16.19,18-2.29-.39-2.47-2.42-2.76-4-3.88-21.44-6.79-43-9.19-64.68-.21-1.89-.42-3.88.56-5.7A191.76,191.76,0,0,1,221.79,475.64Z"/><path class="cls-16" d="M208.1,495.18q2.11,15.13,4.23,30.28c2.08,14.77,3.12,29.7,7.16,44.14-2.83,4.6-7.23,7.79-10.65,11.86-5.13-1.55-3.05-6.38-3.7-9.49-2.56-12.22-3.29-24.74-5.17-37.1-.81-5.36-2-10.87-2.15-16.41,0-1.92-.12-4.05-2.85-4.3A189,189,0,0,1,208.1,495.18Z"/><path class="cls-17" d="M415.89,308.49a49,49,0,0,1-15.06-2.21c2.26-1.62,2.58-3.76,2.05-6.38-.37-1.82-1.61-3.53-.88-5.53-1.21-12.5-4.67-24.6-6.77-36.95-.32-1.88-1-3.7-1.49-5.55a8.21,8.21,0,0,1-1.68-8.47c6.48-.75,11.95,1.74,17.09,5.32,2.29,18.33,5.92,36.46,7.83,54.84C417.17,305.32,417.4,307.1,415.89,308.49Z"/><path class="cls-18" d="M155.79,862.13c8.14-13.44,14.14-28,21.5-41.81,1.41-2.66,1.61-6.34,5.29-7.44l6.4,3.5c-3.86,13.42-9.35,26.26-14,39.38-2,5.44-3.2,11.19-6.42,16.13A75.77,75.77,0,0,1,155.79,862.13Z"/><path class="cls-19" d="M392.55,243.26c.4,2.87.79,5.74,1.19,8.61L392,253.09c-12.69,8.81-20.74,5.71-23.76-9.56-6.26,6.54-11.15,16.9-22.54,8.2,2.71-.71,5.49-1.25,8.13-2.17,9.26-3.23,12.55-9.51,10.43-19.09-.62-2.79-2.63-5.61-.55-8.61,2.11-.51,3.24,1.06,4.45,2.24A89.3,89.3,0,0,0,389.7,240C391,240.66,392.79,241.14,392.55,243.26Z"/><path class="cls-20" d="M577.79,1428.63l-5.23-4.48c-1.66-.71-1.71-2-1.44-3.55q4.39-25.2,8.15-50.51c.29-1.91.43-3.92,1.87-5.46a55.33,55.33,0,0,1,12.79,1.92c-3,.71-2.6,3.48-3.07,5.52C586.44,1390.91,582.13,1409.78,577.79,1428.63Z"/><path class="cls-21" d="M304,114.34c-7.68-27.46,9.88-44.16,27.54-52.57.64-.31,1.58-1.42,2.05-.07.18.53-.74,1.44-1.16,2.18-14.78,13.56-22.92,30.76-27.4,50a12.58,12.58,0,0,1-.53,1.45C303.73,115.29,304,114.75,304,114.34Z"/><path class="cls-22" d="M316.74,159c-1.13.83-1.8,2.79-3.82,1-2.57-2.25-6-2.9-9-4.28q.18-6.91.35-13.81c1.53.89.52,3.92,3,3.84s2.15-3,4-4.33c2.59,3.33,4.36,7.47,8.46,9.47,1.29.63.87,1.69,0,2.57A9.58,9.58,0,0,0,316.74,159Z"/><path class="cls-23" d="M402,294.37c2.79,2.65,2.24,6.4,2.87,9.64.6,3.06-2.46,1.84-4,2.27a46.53,46.53,0,0,1-15-3.33C390.85,299.38,396.64,297.27,402,294.37Z"/><path class="cls-24" d="M655.85,1342.26a234.13,234.13,0,0,1,6.22-26.81c.46,6.35,1.39,12.66,1.22,19.08C663.11,1341.56,663.29,1341.57,655.85,1342.26Z"/><path class="cls-25" d="M355.15,51.16a6.6,6.6,0,0,1-4.24-1l7.44-6.42C358.8,46.86,358.14,49.52,355.15,51.16Z"/><path class="cls-26" d="M103.7,655.19c-.06-1.29.47-2.36,2-4.19,0,3.43.63,6-.93,8.49C104.38,658.07,105.22,656.33,103.7,655.19Z"/><path class="cls-27" d="M90.94,644.53c.29-1,.43-2,1.65-2.57a4.42,4.42,0,0,1-.64,4.73Z"/><path class="cls-9" d="M687.54,360.61c-4.76,5.24-11.33,6.69-17.74,8.15a51.44,51.44,0,0,1-16.18,1.46c-2.4-7-3-14.45-4-21.72-2.53-18-5.32-36-8-54a13.47,13.47,0,0,0-1.37-5.06c-.6-2.16,0-4.23.58-6.28,5.31-20.07,10.44-40.19,16-60.19,1-2.82,1.5-5.77,2.33-8.64.52-1.79.63-3.91,2.89-4.66,3.09.3,3.19,2.75,3.71,5,2.15,9.45,4.46,18.94,5.36,28.53.62,6.65,1,13.28,2.29,19.87,4,20.11,3.8,40.79,8.7,60.87A230,230,0,0,1,687.54,360.61Z"/><path class="cls-10" d="M657.88,223l-12.69,49.23q-2.18,8.46-4.36,16.92c1.13,4.09-.93,7.58-2.11,11.23-.26.79-.75,1.74-1.81,1.51a2.11,2.11,0,0,1-1.42-2.05c-.32-2.79-1-5.53-1-8.36a2.45,2.45,0,0,0,1.13-2.25c-.25-12.25.29-24.5-.71-36.73-.1-1.24-.25-2.47-.27-3.71q-.69-35.67-1.38-71.34c-.16-7.44-.67-14.88-.8-22.32,0-2.3-1.27-3.45-2.78-4.77-5.73-5-11.73-9.79-15.81-16.4-.9-1.46-2.44-2.89-1-4.78,1.27-1.68,3.27-1.49,4.92-1.06a31.24,31.24,0,0,1,7.4,2.82c3.48,2,4.33.89,4-2.65-1.17-11.46-2.68-22.91-2.17-34.47.13-2.69-1.05-6.91,2.23-7.41,3.06-.47,3.41,3.85,4.25,6.36A112.18,112.18,0,0,1,638,113.12c2.7-2.42.87-6.17,2.84-8.65,3.25,3.33,3.38,7.84,3.66,11.91.95,13.8,3.8,27.31,5.63,41,2.52,18.94,5.42,37.84,8,56.77A21.19,21.19,0,0,1,657.88,223Z"/><path class="cls-28" d="M687.54,360.61c-3.72-3.57-2-8.44-2.92-12.68-2.19-10.47-2.9-21.2-6-31.57-1.57-5.33-1.82-11.08-2.43-16.67-1-9.42-1.37-18.9-3.13-28.24-1.35-7.12-3.77-14.31-3.55-21.4.4-12.78-4.29-24.59-5.33-37a3.33,3.33,0,0,0-2.09-2.85c-2.07-2.52-.53-5,0-7.54,2.13-6.9,3.42-14,5.44-21,1.94-9.69.92-19.63,2.57-29.33.33-1.91-.35-4.41,2.54-5.08,3.85,20.58,8.22,41.06,11.26,61.78,3.85,26.23,8.51,52.36,10.22,78.88,1.12,2.05-.14,4.41.84,6.48.07,1.75.15,3.5.22,5.25,1.16,2.42-.16,5.11.83,7.55l.25,8.41a135.82,135.82,0,0,1,0,24.86C695.89,348.3,693.86,355.39,687.54,360.61Z"/><path class="cls-8" d="M591.35,364.8c-.91-2.08-1.52-4.37-2.78-6.2-6-8.64-5.62-18.21-4.87-28.06,1.2-15.92,1.95-31.87,2.88-47.8,5,1.18,10.18,1.15,15,3.11,1.7,17.25,4.77,34.31,7,51.47,1.09,8.23,2.09,16.48,3.23,24.71.25,1.76.54,3.53-.87,5-5.5,0-10.74-1.72-16.14-2.44C593.63,364.44,592.47,363.81,591.35,364.8Z"/><path class="cls-29" d="M634.48,291.47c3.63,2.37,1.31,6.25,2.53,9.87,1.38-4.39,2.6-8.29,3.82-12.2,3.71,2.11,2.41,6.13,2.92,9.11,3.61,20.92,5.68,42.09,9.71,63,.56,2.91.13,6,.16,9L635.51,370c-2.65-4.78-3-10.19-3.49-15.38-1.83-17.63-4.86-35.08-7.13-52.65-.51-4-1.61-8.07,1-11.8C628.64,291.47,631.63,291,634.48,291.47Z"/><path class="cls-30" d="M663.21,202.72q-.53,3.74-1.07,7.47c-2.51,3.9-1.74,8.9-4.26,12.8-2.47-14.15-4.69-28.41-6.38-42.62-1.89-16-4.7-31.89-6.69-47.88-1.17-9.33-1.37-18.88-4-28a138.61,138.61,0,0,1,7-31.19c2.32,3.25,2.47,6.15,2.58,9,.32,8.52.62,17,1,25.54,0,1.38-.33,2.9,1.1,3.9,1.56,6,.81,12.19,1.94,18.28,3.84,20.59,5.39,41.53,9,62.16C664,195.67,664.26,199.23,663.21,202.72Z"/><path class="cls-15" d="M611,367c-1.85-13.94-3.61-27.89-5.57-41.82q-2.6-18.48-5.58-36.9c-.28-1.76.31-2.24,1.74-2.47a34.29,34.29,0,0,1,11.6,2.06c3.52,5.77,2.33,12.45,3.55,18.66,2.46,12.54,3.88,25.25,5.82,37.88,1,6.49,1.56,13,2.57,19.54a5.43,5.43,0,0,1-1.33,5C619.51,368.34,615.12,368.52,611,367Z"/><path class="cls-9" d="M672.7,147.28a75.79,75.79,0,0,0-2,19.74,54.08,54.08,0,0,1-2.13,15.43c-2.64-1-2.82-3.43-3.1-5.69-2-16.13-4.88-32.12-7-48.24-1.09-8.34-1.82-16.85-3.91-25.08,1-6.9,3.58-13.31,6-19.76.43-1.11,1.08-2.51,2.52-2.38,1.64.14,1.48,1.87,1.67,3,1.17,6.68.57,13.44.64,20.17,0,2.12,0,4.24,0,7.94,1.78-6,2.31-10.7,4.47-14.89.7-1.36,1.33-3.44,3.23-3,1.7.42,1.72,2.47,1.79,4a203.11,203.11,0,0,1-1.57,32.89A73.74,73.74,0,0,0,672.7,147.28Z"/><path class="cls-31" d="M623.78,369a259.34,259.34,0,0,0-3.69-27.7c-1.24-6-1.35-12.24-2.35-18.31-1.92-11.63-3.77-23.26-4.57-35a42.2,42.2,0,0,1,12.74,2.3c-.13,14.14,3.23,27.87,4.88,41.81,1.5,12.68,3.14,25.35,4.72,38C631.51,370.61,627.7,369.17,623.78,369Z"/><path class="cls-32" d="M463.88,301.86c-5,3.83-10.89,5.49-17.05,6.31-2.49-4.46-2.78-9.55-3.28-14.35-1.19-11.45-3-22.79-4.66-34.17-.55-3.83-2.59-7.45-1.7-11.49,1.87-4.26,6.36-3.51,9.65-5.06a5.41,5.41,0,0,1,3.26,0c1.32,2.71,2.9,5.34,2.73,8.53-.07,8.07,4,15.14,5.47,22.83.54,2.9,2.21,3.23,4.48,3.17C463,285.68,464.52,293.72,463.88,301.86Z"/><path class="cls-33" d="M532.14,184.58c1.06,3.84-1.08,5.75-4.33,6.51a86.4,86.4,0,0,1-9,1.19c1.71,2.67,5.61,5.23,2.81,8.83-3.6,4.61-8.84,4.52-14.36,2.85,1,3.35,2.17,6.4,2.95,9.54a8.71,8.71,0,0,1-1.54,8.05c-3.42,4-7.8,3.38-9.8-1.47-.39-1-.71-1.93-1.13-3.05-2.39,2.37-4.06,5.43-7.89,5-3.25.61-6.69,3.05-9.48-.95a5.33,5.33,0,0,1,1.12-4.47A83.79,83.79,0,0,0,492.09,193c.44-1.49.79-3.15,2.67-3.63,11.35.44,22.26-2.49,33.3-4.4C529.41,184.77,530.69,183.92,532.14,184.58Z"/><path class="cls-22" d="M495.75,126.87c-1.69-2.51-.61-5.08.71-7,1.83-2.61,3.46-4.9,2-8.2a1.55,1.55,0,0,1,.32-1.42c8.6-7,4.68-14.91,1.32-22.4-1.31-2.93-1.28-4.74.83-6.78,3.33,6,8.32,10.94,10.93,17.39,5,12.49,5.56,25.73,6.43,38.92,1.47,3.77-.25,5.62-3.81,6.45-1.71.4-3.35,1.13-5.17.9a3.65,3.65,0,0,1-2.13-1.4,8.36,8.36,0,0,1-1-3.92,12.26,12.26,0,0,0-.58-2.94c-1.65-4.18-2.47-9.16-8.68-8.87A2.22,2.22,0,0,1,495.75,126.87Z"/><path class="cls-34" d="M532.14,184.58c-2,2-4.75,2.21-7.34,2.58-8.11,1.15-16,3.5-24.28,3.77-2,.06-4.33.87-5.88-1.34-1.46-1.74-1.22-3.66-.66-5.62,1.2-2.94,5.15-2.61,6.42-5.45,2.05-3,1.12-6.82,2.56-10,.86-1.86,1.25-4,3-5.37a2.58,2.58,0,0,1,1.46-.31c2.27,1.53,4.54,1,6.93.19s4.81-2.22,7.51-1C526.26,169.1,531,176,532.14,184.58Z"/><path class="cls-13" d="M654.55,103.44c2.82,2.65,2.83,6.31,3.3,9.73,1.25,9.32,2.19,18.69,3.55,28,1.77,12.13,3.93,24.21,5.62,36.36a22.2,22.2,0,0,0,1.52,4.92c-1.44,6.84-2.62,13.76-5.33,20.27-2-13.59-4.14-27.15-5.89-40.77-1.72-13.43-3.17-26.89-5.77-40.2-.64-3.31.16-6.69.89-10A20.93,20.93,0,0,1,654.55,103.44Z"/><path class="cls-35" d="M481,219.88c2.11,4.15,6,1.06,8.84,2.15-1.38.55-2.64.61-2.69,3-.21,10.12-11,19.57-20.82,18-2.58-.41-3,.08-3.92,2.18a9.84,9.84,0,0,1-9.54,6.33c-2.31-2.31-2.85-5.24-2.94-8.32,2.7-4.06,7.74-4.45,11.26-7.22,6-3.64,10.9-8.48,15.75-13.44C478,221.46,478.63,219.3,481,219.88Z"/><path class="cls-36" d="M463.88,301.86c-1.42-6.32-2.68-12.65-2.16-19.21.14-1.76.06-3.51,1.06-5.07l14.1-2.08C477.13,286.55,473.78,295.82,463.88,301.86Z"/><path class="cls-37" d="M521.85,162c-3.51,1.11-7.05,2.14-10.52,3.36-2.47.87-3.69.13-3.88-2.44-1.45-1.61-1.16-3.49-.84-5.37,1.69-4.36-1.07-9.38,2-13.53a35,35,0,0,1,5.94-1.75c3.13-.37,4.12-2,3.77-4.88,1.44,6.34,1.37,12.84,2.06,19.25C520.59,158.56,520.36,160.52,521.85,162Z"/><path class="cls-9" d="M696.31,340.49q0-12.42,0-24.86A71.82,71.82,0,0,1,696.31,340.49Z"/><path class="cls-9" d="M696.07,307.22c-1.71-2.36-.57-5-.83-7.55C696.65,302.06,696.1,304.67,696.07,307.22Z"/><path class="cls-9" d="M695,294.42c-1.65-2-.63-4.31-.84-6.48C695.49,290,695.07,292.22,695,294.42Z"/><path class="cls-38" d="M392.55,243.26a119,119,0,0,1-28.83-21.4,46.45,46.45,0,0,1-3.74-4.35c-2-3-3.66-4.24-7.08-1.09-3.17,2.94-6.64.5-9.41-1.71a11.6,11.6,0,0,1-4.45-6.32c-3-5.39-2.91-5.52,3.27-5.82,1.4.09,2.62,1.09,4.09.78,5.87-2.81,7.25-7.23,4.7-13.06a36.36,36.36,0,0,0-2.84-6.22c-.71-1.19-1.59-2.53.38-3.49,5-4.36-.25-8.26-.7-12.34-.14-1.36-1.63-2.57-2.51-3.85,2-1.59,3.44.18,5,.93,2.21,1.88,5,3.16,6.54,5.77a12.19,12.19,0,0,1,.64,4.06,36,36,0,0,0,.88,8.91,39.15,39.15,0,0,0,1,6.17c.43,2.74,1.82,5.09,3.12,7.47,1.67,3,4.54,4.4,7.59,5.53,9.36,2.59,18.79,4.05,28.51,2.25,2-.38,4.11-1,6.24-.49,1.08,1,2.33.38,3.52.34a18.54,18.54,0,0,1,7.33,6.64c.94,3.15,4.74,4.55,5,8.13a189.05,189.05,0,0,0,2.32,18.83c1.59,9.87.66,11-9.33,11.21a7.43,7.43,0,0,1-5.38-1.54Z"/><path class="cls-38" d="M407.28,139.82c-4.53-9.15-12.53-10.73-21.65-10a109.51,109.51,0,0,1-11.15.54c-6.23-.15-9.68,2.9-11.11,8.74a27.91,27.91,0,0,1-1.51,3.61c-3.95-11.1-.57-23.18-7.63-32.86,6.83-2.19,6.83-2.19,4.22-11.21,3.82-.13,7.91.63,10.92-2.44s2.9-7.06,2.85-11c0-1.16-.33-3,1.56-2.6,4.91,1,8.1-6,12-3.69,6.33,3.7,5.9,4.4,10.18-1.81a20.63,20.63,0,0,1,2.15-2.34c3.37.46,3.17,3.38,3.73,5.64,1.88,7.56,2.28,15.37,3.32,23,1.36,10.15,3.24,20.23,4.32,30.42C409.75,136,411,139,407.28,139.82Z"/><path class="cls-39" d="M407.28,139.82c3.16-3.67.35-7.54-.08-11.08-2.08-17-4.81-33.95-7.26-50.91a4,4,0,0,0-1.79-3.06c1.77-8.32,9.68-5.59,14.74-7.78,1.58-.68,2.91,3.27,4.22,5.2,2.07,5,2.17,10.42,2.93,15.67,3.06,21.27,6.47,42.49,9.22,63.79-2.51,3.83-6.65,4.64-10.63,5.77-3.08-2-3.85-5.8-6.37-8.25a8.28,8.28,0,0,1-2.47-5.13Z"/><path class="cls-29" d="M428.71,152.47c-3.32-9.57-3.79-19.69-5.08-29.57-1.14-8.73-3.31-17.29-4-26.05-.66-8.24-3.22-16.28-2.51-24.66,6.47,5.92,6.72,5.93,13.81.45L434.48,82c-.78,6.8.72,13.45,1.76,20.05,2.43,15.58,4.69,31.16,6.32,46.84a5.35,5.35,0,0,1-.62,3.59C437.53,153.67,433.12,153.17,428.71,152.47Z"/><path class="cls-40" d="M441.5,152.45c-1.62-12.39-2.95-24.82-5-37.18-1.5-9.19-2.68-18.47-4.06-27.7a5.45,5.45,0,0,1,2-5.61c1,1.65,2,3.34,3.06,4.93,1.21,1.77,2.74,4.16,4.79,3.81,7.51-1.27,6.47,3.8,6.81,8.26a20.68,20.68,0,0,0,5.3,11.91,10.9,10.9,0,0,1,2.87,7.21c-.1,2-2,3.61-4.88,4-1.33.21-2.2,4.11-3.08,6.41-1,2.63-1.79,5.36-2.67,8-1,2.48.77,5.33-1,7.69-1.43,2.55-1.28,5.64-2.73,8.18A1,1,0,0,1,441.5,152.45Z"/><path class="cls-41" d="M357.27,154.81c2.13-.65,4.19-1,4.88-3.91,1.72-7.22,3.25-8.16,11-8,2.52-.59,5.84-1.54,7.31.31,1.59,2-1.61,4.13-2.4,6.33a18,18,0,0,0-1.11,2.91c-.71,3-2.74,5.65-1.93,9-.19,1.62-.34,3.26-2,4.21-2.34-6.67-7.56-5.76-12.78-4.9a3.47,3.47,0,0,1-3.45-.88C355.93,158.05,355.79,156.35,357.27,154.81Z"/><path class="cls-42" d="M471.36,127.38c1.64-.65,3.3-1.25,4.92-1.95,4-1.76,7.88-3.24,10,2.66a4.11,4.11,0,0,0,4,2.26,4.42,4.42,0,0,1,2,5.88c-2.48,1.87-5.27,3.27-7.76,5.15a3,3,0,0,1-1.49-.25c-1.67-3.75-5-5.24-8.64-6.21C472.49,132.74,470.3,130.7,471.36,127.38Z"/><path class="cls-43" d="M409.79,144l3,4.23c1,4.07-2.12,3.25-4,3.07-4.24-.39-8.33-.5-12.12,1.82a14.72,14.72,0,0,1-8.82-2.7c-1.39-2.87-.49-5.27,1.49-7.45,5.7-.43,11.23.6,16.78,1.74C407.21,145,409.09,146.94,409.79,144Z"/><path class="cls-44" d="M357.27,154.81V160a10.71,10.71,0,0,1-.57,7.31c-2.11,1.76-3.48.06-5-1.06-2.42-2.46-6.8-3-7.29-7.35.74-2.1-1.54-5.27,1.2-6.35C349.69,151,354.11,150.33,357.27,154.81Z"/><path class="cls-45" d="M331.72,200.55a19.51,19.51,0,0,1-5.46-8.29c-.47-.82-.07-1.26.66-1.54.16,0,.39,0,.48.11.31.35.49.45.42.34a14.42,14.42,0,0,1-1.76-7.39c-.19-3.62.56-6.66,4.49-8,2.36-.81,3.72-.14,4.11,2.36,0,3.63,2,6.14,4.65,8.29a4,4,0,0,1,.52,4C332.85,190.35,331.29,194.65,331.72,200.55Z"/><path class="cls-46" d="M444.67,144l2-7.43c.24,1.52,0,3.33,2.51,1.41a37.18,37.18,0,0,1,11.42-6.05c-.43,5.23-4.45,9-5.74,13.85C450.64,149.18,446.77,148.5,444.67,144Z"/><path class="cls-41" d="M454.29,145.1c.75-5,3.63-9.06,6.32-13.16l2-.79c3.33-.92,5.27.48,6.12,3.69-1.38,3.48-5.22,4.5-7.33,7.28-1.37,1.8-3.1,3.35-3.89,5.56-.65,1.43-.89,3.07-2.19,4.16a2.49,2.49,0,0,1-1.64,0C450.72,149.35,454,147.35,454.29,145.1Z"/><path class="cls-47" d="M339.07,191l.24-4.54c3.39.39,6.38.16,6.76-4.25.14-1.65,1.17-2,2.57-1.6-.4,3.61,3.69,5.65,3.24,9.28-1.75.83-4-1.54-5.48.86-1.16,2.95-.26,7.51-5.6,7.14C338.13,196.09,337.26,193.86,339.07,191Z"/><path class="cls-48" d="M389.27,143l-1,7.27a67.37,67.37,0,0,1-12.75,2.43c.25-3.64,2.92-6.16,4.84-9.81h-7.2C378.5,141.7,383.89,142.45,389.27,143Z"/><path class="cls-49" d="M327.44,184.61q.49,3.57,1,7.15c0,.09-.17.21-.26.31l-.75-1.07c-4.43-6.1-7-12.68-5.29-20.38l8.44.27C328.32,175.19,325.46,179.35,327.44,184.61Z"/><path class="cls-50" d="M327.44,184.61c-2.48-7-1.51-11.28,3.12-13.72,1.78-.43,3.56-1,3.59,2,0,1.76.33,3.51.51,5.27-2.91-2.16-6.55-1-7.14,2.31A25.05,25.05,0,0,0,327.44,184.61Z"/><path class="cls-51" d="M468.13,135.29c-.95-2.56-3.08-3.55-5.51-4.14,2.6-2,5.72-2.75,8.74-3.77l3.18,6.71C472.72,136.18,470.65,136.93,468.13,135.29Z"/><path class="cls-52" d="M322.12,170.62c-.22,7.31,2.42,13.88,5.29,20.38l-1.15,1.26c-4.53-7.12-6-15.18-7.18-23.32Z"/><path class="cls-53" d="M344.43,158.94l7.54,6.44c-.45.86-1.52.44-2.1,1-1.53-.56-2.52-2.31-4.44-2C344.42,162.7,339.34,161.76,344.43,158.94Z"/><path class="cls-54" d="M491.87,136.44c-.54-2-1.07-4.06-1.61-6.09,2.72.24,3.14-3.15,5.49-3.48l1.17.1c.76,1.86-.87,3-1.34,4.49-.85,1.65-1.09,3.6-2.46,5A1,1,0,0,1,491.87,136.44Z"/><path class="cls-55" d="M466.73,115.18a1.5,1.5,0,0,1-1.72,1.06c-1,0-1.1-.78-1.07-1.49,0-.55-.21-1.67,1-1A14.86,14.86,0,0,1,466.73,115.18Z"/><path class="cls-15" d="M555.55,1422c.19-9.22,1.26-18.29,4.31-27,.83-2.38.44-4.8.57-7.19.33-6,1.73-12,2.81-17.92.5-2.77,1.25-5.5,1.89-8.24l6.48,1.09c3.28.56,3,3,2.65,5.29-1.42,10.52-3.63,20.92-4.82,31.48-.7,6.16-2.23,12.17-3.24,18.28-.32,1.9-.58,3.88-2.12,5.33Z"/><path class="cls-56" d="M564.08,1423.07q2.42-15.39,4.83-30.78c1.4-8.87,2.76-17.74,4.31-26.58.31-1.73-1-2.07-1.61-3,3.38-.36,6.21,2,9.53,1.94-1.31,13.3-3.43,26.47-5.85,39.61-1.22,6.58-1.84,13.27-2.73,19.91Z"/><path class="cls-57" d="M438.3,247.53c-.75,4.75,1.41,9.14,2.46,13.47,1.79,7.44,2.17,15.05,3.23,22.48,1.15,8.14,3.17,16.33,2.84,24.69a52.36,52.36,0,0,1-17.06,1.19c-2.23-2.37-2.48-5.47-2.93-8.42-2.37-15.44-4.23-30.95-6.53-46.39-.24-1.59-.43-3.19.45-4.67,3.91-2.94,8.71-2.59,13.17-3.52C435.52,246.24,437.08,246.24,438.3,247.53Z"/><path class="cls-58" d="M421.25,249.67q2.91,20.78,5.84,41.54c.86,6.05,1.79,12.1,2.68,18.15-4.65.11-9.32.56-13.88-.87-1.86-12.88-2.64-25.86-5.54-38.65a70.64,70.64,0,0,1-1.89-21.24h5.32C416.12,250,418.9,248.28,421.25,249.67Z"/><path class="cls-59" d="M78.37,850.06c-1-2.49-2-5-3-7.46C78.21,844.29,78.39,847.19,78.37,850.06Z"/><path class="cls-60" d="M89.8,844c-2.39-.24-2.43-2-2.49-4.28,1.93,1.15,2.13,2.78,2.46,4.33Z"/><path class="cls-61" d="M88.33,816.19c1.77.93,1.81,2.15,2.15,3.26C88.59,819.45,88.68,818,88.33,816.19Z"/><path class="cls-62" d="M80.51,824.21c1.54.65,2,1.58,1.59,2.94C80.46,826.77,80.43,825.64,80.51,824.21Z"/><path class="cls-63" d="M593.14,1456.72a18,18,0,0,1-5.95,4.7,9.7,9.7,0,0,1,5.41-5.29C593.13,1456,593.31,1456.21,593.14,1456.72Z"/><path class="cls-64" d="M580.71,1449.86c-.32,2-1.78,2.85-3.62,4.07C577.18,1451.16,579.2,1450.69,580.71,1449.86Z"/><path class="cls-65" d="M583.41,1435c-1.1,2.06-3.09,2.7-6.19,4.33,2-3.25,3.86-4.14,6.1-4.42Z"/><path class="cls-62" d="M582,1449.65c.83-2.64,2.29-3.17,3.88-4.16C585.74,1448,584.15,1448.49,582,1449.65Z"/><path class="cls-66" d="M572.5,1442.54a6.18,6.18,0,0,1-4.22,3.73A4.93,4.93,0,0,1,572.5,1442.54Z"/><path class="cls-67" d="M576.94,1438.84c-.57,1.93-1.39,2.79-3.25,2.92C574.13,1439.92,575.09,1439.23,576.94,1438.84Z"/><path class="cls-68" d="M592.6,1456.13c.88-.92,1.47-2.26,3.17-2.07,0,1.89-1.5,2.08-2.64,2.66A5.88,5.88,0,0,0,592.6,1456.13Z"/><path class="cls-69" d="M583.91,1463.69a2.31,2.31,0,0,1,2-2.32c.07,0,.49.57.42.76A2.18,2.18,0,0,1,583.91,1463.69Z"/><path class="cls-70" d="M292.37,39.79a34.33,34.33,0,0,1,20.23-.74l0,1.65H295.78C294.54,40.79,293,42,292.37,39.79Z"/><path class="cls-71" d="M292.37,39.79l3.41.91c-2.26,1-4.63,1.21-8.08.62Z"/><path class="cls-72" d="M318.41,41.15a2.68,2.68,0,0,1-3.46-.49c-.15-.15.13-1.09.36-1.15C316.62,39.13,317.56,39.78,318.41,41.15Z"/><path class="cls-73" d="M339.07,191c.05,2.39.25,4.72,2.15,6.49s3.64,3.42,2.3,6.29h-5.61c.44,1.81.79,3.22,1.13,4.64l-7.32-7.84c-.1-.87-.19-1.74-.31-2.6-.3-2.27-3.1-4.61-.74-6.72S336.21,189.48,339.07,191Z"/><path class="cls-74" d="M461.74,236.82c-3.49,3-7.7,4.65-11.84,6.44l-2,1c-3.47-4.88-2.21-11.06-4.44-16.27-.37-3.54,3.18-4.28,4.65-6.51a20.14,20.14,0,0,0,3.76-4.61c1.69-1.75,3-4.1,5.91-4,.5.19,1.19.33,1.32.79C461.31,221.22,464.76,228.66,461.74,236.82Z"/><path class="cls-11" d="M443.62,227.25a2.14,2.14,0,0,1,2.1,2c.69,5,1.44,10.06,2.17,15.09l-9.59,3.23H434a3.29,3.29,0,0,1-2.18-2.76c-.45-4.71-1.33-9.36-1.78-14.07a4.19,4.19,0,0,1,1.43-3.78C435.58,225.56,439.59,226.64,443.62,227.25Z"/><path class="cls-9" d="M461.74,236.82c1-6.92-2.59-13.32-2.37-20.19a3.06,3.06,0,0,0-2.88-3.23c-.09-4.48,3.7-7.67,4-12a8.38,8.38,0,0,1,3-5.1c.36-.69,1.74-.07,1.67-1.28,0-.34-.42-.81-.56-.74-.57.3-.27,1.16-.82,1.55a5.22,5.22,0,0,1-3.35,1.73,5.34,5.34,0,0,1-3.88-.87c-.42-2.71,2.12-4,3-6.07,7.65-2.2,15.76-2.45,23.17-5.71a52,52,0,0,0,7.68-3.66A7.77,7.77,0,0,1,494,179.9a1.65,1.65,0,0,1,1.26.76,2.69,2.69,0,0,1-.5,2.85q-.09,3-.16,6.08c-3,10.8-7.07,21.12-13.67,30.29C475.18,226.24,469.61,232.83,461.74,236.82Z"/><path class="cls-75" d="M494.63,131c.06-1.75,1.61-2.67,2.29-4.07,5.5-1.1,8.08,1.43,9.72,9.54a53.49,53.49,0,0,0-8,4.64c-2.58-1.37-2.41-4.26-3.55-6.42C494.94,133.5,494.18,132.34,494.63,131Z"/><path class="cls-76" d="M499.05,140.82c1.6-3.08,3.38-5.84,7.59-4.31a2.19,2.19,0,0,1,.7,2.23c-.7,1.47.07,3.11-.5,4.59l.49.14c-.28-.66.82,0,.26-.43l1,1c-.5,4.58,1,9.32-1,13.79-3.58-2.29-2.22-6.42-3.55-9.55-.81-1.9.07-5-3.45-5a2.62,2.62,0,0,1-1.39,0,2,2,0,0,1-.71-1.19A1.7,1.7,0,0,1,499.05,140.82Z"/><path class="cls-77" d="M507.59,143c0,.51.08,1.13-.17,1.49-.93,1.34-.86,0-.83-.42.12-1.8-.65-3.74.75-5.37C507.42,140.17,507.5,141.61,507.59,143Z"/><path class="cls-77" d="M500.08,143c.15-1.05.21-2.32,1.52-2.45s1.58,1.18,2,2.09c2.36,4.81,2,10.34,3.95,15.24l-.12,5.11c-.3.16-.58.33-.86.51-1.52-1.1-1.75-2.82-2.21-4.48,1.24,5.3-.85,10.09-2.61,14.79-.92,2.47-2.7,5.06-6.29,4.31-1.19-1.77-1-3.69-.66-5.64.46-1.52.9-3.05,2.31-4,.8-.37,2.15,1,2.51-.81a40.5,40.5,0,0,0-.27-19.69C498.9,146.18,498.82,144.47,500.08,143Z"/><path class="cls-78" d="M495.87,178.19c5.56-3.58,7.56-8.84,7.52-15.25,0-2.81-.88-5.86,1.45-9.4.69,3.94,1.22,6.93,1.75,9.92-3.18,4.81-2.14,11-5.08,15.87-2,1.68-4.15,2.89-6.71,1h0C494.27,179.15,494.92,178.6,495.87,178.19Z"/><path class="cls-79" d="M494.8,180.3a13.87,13.87,0,0,0,6.71-1c-1,3.32-4.9,2.1-6.71,4.18Z"/><path class="cls-80" d="M358.37,191c-.38-2.13-1.45-4.14-1.08-6.4,3.33-3.09,7.91-3.53,11.82-4,11.59-1.43,22.73-5.07,34.29-6.31,5.45-.58,10.89,0,14.6,5a7.9,7.9,0,0,1-.53,6.12,4.07,4.07,0,0,1-4.52.47c-5.15-2.17-10.18-.87-15.15.33-9.65,2.33-19.45,3.78-29.17,5.72C365.21,192.59,361.6,193.33,358.37,191Z"/><path class="cls-81" d="M417,179.25c-5.52-4.49-11.84-4.12-18.27-3-9.6,1.69-18.89,4.69-28.74,5.48-4.09.32-8.39,2.09-12.69,2.85a24.85,24.85,0,0,1-1-9.62c.4-.58.68-1.43,1.34-1.59,7.73-1.87,15.11-5.67,23.57-3.18,7.56,2.22,15.3,1.82,22.93-.18a15.38,15.38,0,0,1,4-.93,16.7,16.7,0,0,1,3.14.5c2.87,1.27,6,2,8.26,4.47C419.44,176.16,420.17,178.64,417,179.25Z"/><path class="cls-82" d="M358.37,191c7.57.4,14.84-1.32,22.16-2.94,8.8-1.94,17.62-4,26.54-5.11,3.11-.39,6.55,1.75,9.84,2.73,1,.6,1.24,1.77,1.88,2.64.44.56.89,1.12,1.29,1.71a2.22,2.22,0,0,1,.23,2.25,3.8,3.8,0,0,1-1.48.82c-9.9-2.82-19.47.73-29.07,1.9-7.05.85-14.42,1-21.14,4.05a6.81,6.81,0,0,1-7.05-.58C360.52,196,358.7,193.79,358.37,191Z"/><path class="cls-83" d="M361.57,198.45c3.44.32,6.46-1.11,9.68-2a129.58,129.58,0,0,1,19.62-3.27c4.72-.48,9.42-.45,13.78-2.79,1.93-1,4.08-.47,6.19.08,3.05.79,6.08,1.94,9.34,1.55,1.29,3.59-.72,5.86-3.18,7.94-12.52-4.59-24,2.53-36,3.37-4,.28-7.93,1-11.95.43A10.25,10.25,0,0,1,361.57,198.45Z"/><path class="cls-84" d="M431.92,227.22c-.69,6.92,1,13.58,2.12,20.31-4.13,1.51-8.52,1.49-12.79,2.14-2.48-.43-5.22,1-7.47-1.06,9.43,0,9,0,7.78-9.74-.82-6.6-3.55-13.17-1.39-20,3.94-.46,6,2.92,8.93,4.43C430.12,224.54,432.27,225,431.92,227.22Z"/><path class="cls-85" d="M405.25,170.87a28.25,28.25,0,0,1-20.71,1.43c-8.24-2.72-15.22,0-22.71,1a36.09,36.09,0,0,0-5.57,1.63l0-4.26a5.37,5.37,0,0,1-.07-3.1c.53-2.5-.87-5.28,1.11-7.56,3.94-.64,7.87-1.35,11.82-1.9,2-.28,2.84,1,3.07,2.77.19,1.52-.4,3.21,1,4.46,4.1,1.47,8.2,2.93,12.67,2.75,4.05,1.6,8.29,1,12.48,1.11C400.71,169.38,403.33,168.68,405.25,170.87Z"/><path class="cls-86" d="M369,203.79c10.38-1.79,20.91-3,31.06-5.61,6.15-1.59,11.49-2,16.91,1.34.44,3.33-3.05,3.29-4.36,5.13a4.63,4.63,0,0,1-1.23.77,2.53,2.53,0,0,1-2.05-.31c-2-3.29-1.81,1.36-3,.82-3.8.49-7.58,1.07-11.38,1.46C386,208.28,377.29,207.58,369,203.79Z"/><path class="cls-87" d="M428.68,224.08l-8.51-5.22c-2.09-2-4.9-3.41-5.33-6.72a2.51,2.51,0,0,1,2.21-.47c3,1.19,5.95,2.79,9.35,2.78,2.48.29,5.08-.88,7.44.64,1.28,1.8-.68,1.68-1.38,2.31a11.09,11.09,0,0,0,3.74-1.69,4.58,4.58,0,0,1,2-.71,16.81,16.81,0,0,0,6.78-1.26,5.24,5.24,0,0,1,2.65-.69,3,3,0,0,1,1.1.78,14.32,14.32,0,0,0,2.71,2.79,2.89,2.89,0,0,1,.76,1c-.18,2.11-1.59,3.27-3.25,4.25C442.67,227,435.94,228.06,428.68,224.08Z"/><path class="cls-31" d="M345.6,188.86c2.47-2,4.34-.31,6.28,1,3.21,7.67,3.11,7.95-2.88,12.86a18.22,18.22,0,0,0-2.47,3.13C343.61,200.33,344.86,194.58,345.6,188.86Z"/><path class="cls-88" d="M416.85,212.41l-2-.26-6.34-6.27c-.29-1,.12-1.3,1.05-1.17l2.06.1c1.59-.82,3.05,0,4.53.38,1.94,1.22,4.78,1.15,5.59,4A4.1,4.1,0,0,1,416.85,212.41Z"/><path class="cls-89" d="M345.6,188.86c-.79,5.73,1.47,11.28.93,17l-3-2.1c-.77-2.1-1.54-4.19-2.3-6.29C346.47,196.53,343,191.17,345.6,188.86Z"/><path class="cls-90" d="M356.16,167.6a2.36,2.36,0,0,1,.07,3.1c-2.55-.8-4.22-2.89-6.36-4.3a2.17,2.17,0,0,1,2.1-1C353.43,166,354.39,167.56,356.16,167.6Z"/><path class="cls-91" d="M409.55,204.71l-1.05,1.17c-.73.07-1.44,1.28-2.2.05.25-.83.45-1.69.77-2.5.4-1,1.14-2.09,2.31-1.54S409.28,203.76,409.55,204.71Z"/><path class="cls-92" d="M396.74,152.43c3.1-4.37,7.6-2.62,11.62-2.46,1.89.07,3.83,1.29,4.39-1.7a15.82,15.82,0,0,1,5.32,8.64,1.08,1.08,0,0,1,.36.82c0,.31,0,.47-.09.47a10.13,10.13,0,0,1-3,3c-2.29,1.7-5.25,1.9-7.63,3.41a3.6,3.6,0,0,1-2.22-1.64,59.65,59.65,0,0,0-3.88-4.67,18.45,18.45,0,0,0-1.55-2.19C399,154.86,397.11,154.33,396.74,152.43Z"/><path class="cls-93" d="M418,157.86l.06-1c3.6-1.36,6.71-3.88,10.64-4.44,4.26-1.73,8.53-.95,12.79,0l1.07.06c1.33-.7,2.18-.48,2.28,1.18-1.56,1.55-3.65,1.32-5.56,1.7-6.75-.95-12.73,2.28-19.07,3.56A3,3,0,0,1,418,157.86Z"/><path class="cls-94" d="M444.7,153.61l-2.13-1.1c-.14-3,.12-6,2.1-8.5,2.9,3,6.07,3.71,9.62,1.09.8,2.15-2.55,4.41.18,6.5a2.33,2.33,0,0,1,.37,2,12.62,12.62,0,0,0-1.58,4.62,3.71,3.71,0,0,1-.94,2,2.34,2.34,0,0,1-1.43.14c-2.29-1.79-6-.15-7.77-3.12a3,3,0,0,1,.07-1.39C443.55,155,444.5,154.56,444.7,153.61Z"/><path class="cls-95" d="M396.74,152.43c1.34,1.22,3.39,1.49,4.34,3.24,1.13,3.06.76,5.54-2.69,6.78a2.33,2.33,0,0,1-1.72-1.48c-3.31-6.19-5.15-6.37-9.25-.88a3.48,3.48,0,0,1-3,.06,3.06,3.06,0,0,1-2.15-2c-.46-1.39,1-2.54.54-4-3.79.5-5.58,3.32-7.39,6.11a3.22,3.22,0,0,1-1.19.88c-2.83-3.26.93-5.58,1.2-8.4,3.93-2.47,8.11-3.64,12.75-2.43C391.36,149.78,393.77,152.24,396.74,152.43Z"/><path class="cls-96" d="M374.27,161.11l.24-1c1.43-.82,2.16-2.85,4.28-2.51a8,8,0,0,1,3.68,2.65c.86,2.89,3.56,5.23,2.66,8.66-4.59.88-8.76.33-12-3.5C373.52,164,373.89,162.53,374.27,161.11Z"/><path class="cls-97" d="M499.05,140.82V142c-.47,3.13-1,6.24-3,8.85a4.48,4.48,0,0,1-1.47.72c-3.27.29-6.43,1.74-9.8.87a3.44,3.44,0,0,1-1.8-1.45c.42-2.87,2.56-5.61.71-8.67a1.93,1.93,0,0,1,.42-1.35c1.94-2.63,4-5.08,7.79-4.48h.51c1.2-.59,2.14-1.64,3.47-2Z"/><path class="cls-98" d="M468.13,135.29l6.41-1.2c3.88.92,8.53.85,8.6,6.68-2.53.88-3.87-1.48-5.83-2.13-1.45-.49-2.86-1.56-4.34-.18,1.4,1.2,2.58,2.48,2.41,4.48a3.66,3.66,0,0,1-.58,1.38,4.08,4.08,0,0,1-3.5,1.19c-6-3.23-6.91-2.95-8.35,2.7a4.84,4.84,0,0,1-.7,2c-1.16,1.08-2.62.22-3.89.59a1.7,1.7,0,0,1-1.22-.44c-.85-.95,0-2.2-.58-3.19C458.61,141.44,463.21,138.21,468.13,135.29Z"/><path class="cls-99" d="M474.61,143a5.18,5.18,0,0,0-3.89-4.36c1.92-3.17,4.62-1.06,7-1l5.41,3.2c.31.06.63.11.94.15.06.32.11.64.16,1-1.46,1.57-3.23,1-4.95.73C477.67,141.92,476.24,143.78,474.61,143Z"/><path class="cls-100" d="M454.28,153.55c.06-.65.12-1.3.19-2a4.81,4.81,0,0,0,.85-.1c.61-.54.91-1.72,2.12-1l.19-.15a2.2,2.2,0,0,1,.38,2.23c-.83,1.46-1.85,2.63-3.78,2.3A.78.78,0,0,1,454.28,153.55Z"/><path class="cls-101" d="M457.44,150.49l-2.12,1a6.66,6.66,0,0,1,1.24-4.34C457.75,148,457.58,149.26,457.44,150.49Z"/><path class="cls-42" d="M495.85,134.45c-.19,2.34-1.86,2.12-3.47,2l2.25-5.41C495,132.18,495.45,133.32,495.85,134.45Z"/><path class="cls-102" d="M447.91,214.48c0-.33,0-.66,0-1a3.16,3.16,0,0,1,1-2.71c4.6-2,8.06-5.47,11.23-9.27a1.83,1.83,0,0,1,1.45-.09c-.45,4.54-2.74,8.28-5.13,12a12.21,12.21,0,0,1-4.27,4.27h-1.1A6.68,6.68,0,0,0,447.91,214.48Z"/><path class="cls-103" d="M428.68,224.08c7.07,2.14,13.76.79,20.29-2.16-1.11,2.46-3.59,3.54-5.35,5.33-3.91,2-7.8,0-11.7,0Z"/><path class="cls-79" d="M495.87,178.19l-1.06,2.12-3.2,1.09c-8.8,1.49-17.8,1.13-26.58,3.21-3.71.88-8.08.78-11.41-2.3-.77-2.14-1.83-4.26-.47-6.55,8.94-.65,17.85-1.55,26.75-2.55a73.34,73.34,0,0,0,11-1.66c1.69-.45,3.4-1.24,5,.23Z"/><path class="cls-104" d="M454.33,182.46c7.88,2.72,15.44-.79,23.17-1.1,4.69-.2,9.41-1.88,14.11,0-4.24,4.77-10.44,5.56-16,7.23-5.09,1.53-10.47,2.92-16,2.35-3.86,1.38-6.15-1.14-8.54-3.44a2.48,2.48,0,0,1,.13-2.74,7.3,7.3,0,0,1,1.35-1.53A2.94,2.94,0,0,1,454.33,182.46Z"/><path class="cls-105" d="M416.14,206l-4.53-1.17q0-.45.06-.9c9.18-4,19.05-5.15,28.75-7,3.42.11,6.62-1.17,10-1.49,2.09-.2,4.22-.92,6.08.74l4.26.13c-.43,3.34-3.68,3.58-5.69,5.2a6.84,6.84,0,0,1-1.66.53A111.86,111.86,0,0,1,427,207.35,24.29,24.29,0,0,1,416.14,206Z"/><path class="cls-106" d="M456.48,196.17l-16,2.17c-.12-1.58,1.17-3,.67-4.58a22.91,22.91,0,0,1,10-7c2.69,1.71,5.22,3.74,8.51,4.25C460.25,193.73,458.72,195.17,456.48,196.17Z"/><path class="cls-107" d="M455.27,200.48c1.05-2.41,4.08-2.22,5.47-4.18l3.15-1.06a.77.77,0,0,1,.33.71c-.05.27-.11.41-.19.41-.8,1.68-1.61,3.37-2.41,5.06l-.89.26C458.61,202.64,456.44,203.85,455.27,200.48Z"/><path class="cls-108" d="M464,196.36c0-.38-.1-.75-.14-1.12-.46-.89-1.43-1.91-1.24-2.65s1.59-.6,2.11.06c.83,1,2,2.39,1.88,3.48C466.49,197.41,464.93,196.05,464,196.36Z"/><path class="cls-109" d="M500.08,143c1.09,7.92,3.57,15.76,1.16,23.87-.3,1-.14,2.11-1.1,2.83a3.91,3.91,0,0,1-1.25-2.35,66.77,66.77,0,0,0-2.09-15.73c.18-3,1.34-5.79,2.27-8.61Z"/><path class="cls-110" d="M499.07,143c.5,3-1,5.67-1.11,8.54-1.16.51-1.73-.14-2.14-1.11.09-3.19,1.76-5.78,3.22-8.45C499,142.29,499.06,142.63,499.07,143Z"/><path class="cls-111" d="M495.87,171.78c-11.32,3.72-23.33,2.9-34.85,5.28-2.72.57-5.13-1.13-7.78-1-2.64-1.11-4.82-2.46-3.07-5.88,1.95-1.48,4.28-1.44,6.58-1.74,11.93-1.53,23.88-3,35.66-5.59a4.66,4.66,0,0,0,2.34-1.15,2.57,2.57,0,0,1,2.33-.75c2.05,1.68,2.08,3.94,1.81,6.28a2.58,2.58,0,0,1-.94,1.39Z"/><path class="cls-112" d="M498,168.61c0-.39.07-.77.1-1.16a1.42,1.42,0,0,1,2,0c0,.73,0,1.46.05,2.2-.21.73-.14,1.94-1.32,1.54S498.1,169.54,498,168.61Z"/><path class="cls-113" d="M418,188.89c-1.18-.8-1-2.07-1.06-3.23,0-2.14,0-4.27.08-6.41,1.68-1.39.79-3.81,2.13-5.34a2.08,2.08,0,0,1,1.67-1.62,2.58,2.58,0,0,1,1.55.38,7.3,7.3,0,0,1,2.11,5.78c0,1.16-.05,2.83-1.73,2.74-1.36-.08-1.38-1.58-1.61-2.82,0,2.73,1,5.36-.16,7.94A5.07,5.07,0,0,1,418,188.89Z"/><path class="cls-114" d="M420.2,172.8l-1.08,1.11c-3.18-.22-5.59-2.5-8.58-3.22a12.63,12.63,0,0,1-1.76-2.81c-.41-1.19-2-2-1.3-3.54,1.46-3.17,5.28-2.27,7.41-4.28,1.5,1.4,4.07-2.07,5.19,1.14C420.35,165.06,422.72,168.91,420.2,172.8Z"/><path class="cls-115" d="M407.48,164.34c.51,1.21,2.26,1.59,2.15,3.22.37,1.13-.19,1.74-1.17,2.13l-3.21,1.18-7.4-.17c-.84-1.65.61-2.78.93-4.17.89-1.89,1.74-3.82,3.61-5a3.41,3.41,0,0,1,3.77.74Z"/><path class="cls-116" d="M408.46,169.69l1.17-2.13c1.21.78.93,2,.91,3.13A2.14,2.14,0,0,1,408.46,169.69Z"/><path class="cls-117" d="M441.51,194.19c4.41,2.58-.15,2.9-1,4.15l-28.8,5.57c1.19-2.16,4.42-1.87,5.31-4.39s2.86-4.67,3.2-7.47c0-.34,0-.69,0-1,1.24-.7,2.43-.22,3.54.3,5.07,2.35,10.2,4.05,15.86,2.2A2,2,0,0,1,441.51,194.19Z"/><path class="cls-118" d="M418,188.89a2.18,2.18,0,0,1,2.25-2.26c4-2.67,8.85-2.35,13.32-3.29,5-1.05,10.16-1.62,15.07-3.24,2.71-.44,6.11-1.8,4.69,3.42l-1.12,1.12a1.91,1.91,0,0,1-1.23.46c-1.56.07-3,.32-3.47,2.18-6.29,4.2-12.86,6.87-20.5,3.88a9.28,9.28,0,0,0-5.76-.71c-.74,0-1.51.06-2.09-.56Z"/><path class="cls-119" d="M451.08,184.57l1.1.07c-.36.69-.71,1.39-1.07,2.09-2.58,3.28-6.46,4.9-9.6,7.46-7.79,3.57-14.58.37-21.31-3.17l-1.07-1.13,2.32-.15a6.94,6.94,0,0,1,5.13.17c8,3.05,14.73-.27,21.36-4.17C448.85,185,449.7,184.05,451.08,184.57Z"/><path class="cls-120" d="M399.74,167.51l-1.89,3.19c-4.3-.17-8.88,1.54-12.72-1.83-1.15-2.82-3.75-5.13-3-8.61.42-1.38,1.92-.3,2.58-1.12l2.42.91a2,2,0,0,1,.53,1.15,5.5,5.5,0,0,0,1,3c2,2.71,4.92,1.84,7.57,2A4.7,4.7,0,0,1,399.74,167.51Z"/><path class="cls-121" d="M455.27,200.48c1.49,1.92,3.62.9,5.46,1.2-2.7,4.65-6,8.54-11.6,9.78-2.86,1.81-6.23.9-9.26,1.77-2.39.61-4.9.36-7.27,1.08a15.11,15.11,0,0,0-6,1.23,12.93,12.93,0,0,1-9.71-3.13l4.44-3.42a3.21,3.21,0,0,1,3-.71c11.18,2.12,21-1,30-7.61A7,7,0,0,0,455.27,200.48Z"/><path class="cls-122" d="M439.29,212.26c3.15-1.82,6.53-.85,9.84-.8a2.33,2.33,0,0,1-1.23,2l-2.08.94a50.25,50.25,0,0,1-7.42,1.17l-1.16.91c-1.34.71-2.29-.12-3.27-.82l-7.41-.15a6.29,6.29,0,0,1,5.35-2.14C434.44,213.43,437.06,214.09,439.29,212.26Z"/><path class="cls-123" d="M438.4,215.6a10.55,10.55,0,0,1,7.42-1.17C443.44,215.41,441.24,217.51,438.4,215.6Z"/><path class="cls-124" d="M434,215.69c1.27-.44,2.19.52,3.27.82-1.79,2.16-4.17.61-6.48,1.38C431.38,215.89,433.41,217,434,215.69Z"/><path class="cls-125" d="M447.91,214.48c2.42-.29,3.43.82,3.21,3.19A6.47,6.47,0,0,1,447.91,214.48Z"/><path class="cls-126" d="M454.25,200.67c-7.74,8.94-17.74,10.75-28.81,9.17-1.4-.19-2.77-.56-4.15-.85-1.42-1.52-3.94-1.14-5.15-3C429.19,206.72,441.72,203.7,454.25,200.67Z"/><path class="cls-127" d="M399.74,167.51l-4.12,0c-.68-1.77.82-2.89,1.27-4.33a2.57,2.57,0,0,1,.94-.94c2-1.72,3.54-3.69,3.25-6.55,1.13.41.78,1.64,1.31,2.39.56,1.41.87,2.81-.23,4.14Z"/><path class="cls-128" d="M419.1,160.09c-1.4-.2-2.84,4.17-4.21,0l3.12-2.19,2.34.1C420.64,159.09,420.08,159.71,419.1,160.09Z"/><path class="cls-129" d="M402.16,162.2c.08-1.39.15-2.77.23-4.15,1.4,1.28,3.09,2.3,3.77,4.22Z"/><path class="cls-130" d="M419.1,160.09l1.25-2.13c6.21-2,12.12-5.64,19.07-3.36,1.54-.24,3.36-1.55,4.16,1.08l.05.18c-1.39,1.91.69,3.1,1,4.66.47,2.45,1.91,4.88.13,7.38a2.74,2.74,0,0,1-1.42.67c-7.68-.24-14.91,1.83-22.08,4.23h-1.06C420.41,168.51,418.46,164.41,419.1,160.09Z"/><path class="cls-131" d="M443.58,155.68c-1.11-1.43-2.75-.79-4.16-1.08,1.52-1.65,3.52-.69,5.28-1C446.47,155.46,445.16,155.64,443.58,155.68Z"/><path class="cls-132" d="M444.68,167.5c.54-4-3.64-7.5-1.05-11.64.28,2.22,1.95,2,3.51,2.06s3.64-.45,4,2.12a3.06,3.06,0,0,0,4,1.05,39.71,39.71,0,0,1,6.83-1.36,35.75,35.75,0,0,1,4.14.07c8.52,1.74,17.21.53,25.77,1.53,1.37.16,2.83-.29,4,.84-2.86,3.59-7.5,3.74-11.1,4-11.7.82-23,4.25-34.74,4.55-.9.68-1.67,0-2.47-.22s-1.77-.31-2.61-.63C444.14,169.15,443.84,168.39,444.68,167.5Z"/><path class="cls-133" d="M461.53,161.06l-7.26,1.16a2.67,2.67,0,0,1-2.18-2.17c0-.69.07-1.38.11-2.07.78-1,.43-2.87,2.2-3.24l3.13-2.17c1.45.39,2,1.81,3.08,2.64,1.53,1.4,4.05,1.69,4.66,4.13C464.71,161.4,462.55,160,461.53,161.06Z"/><path class="cls-134" d="M452.09,160.05l2.18,2.17c-3,2.13-3.12,0-3.17-2.18Z"/><path class="cls-135" d="M454.4,154.74,452.2,158c-.16-1.88.12-3.55,2.08-4.43Z"/><path class="cls-136" d="M387.28,161.08c0-.35-.09-.69-.16-1-.09-2.8,1.07-4.78,3.92-5.27,4-.69,5.38,2.33,6.72,5.24C394.45,162.19,390.89,161.89,387.28,161.08Z"/><path class="cls-137" d="M387.28,161.08c3.34-1.92,7-.67,10.48-1.06,0,.73,0,1.46.07,2.2,0,.34,0,.68,0,1-3.2,3.87-6.88,2.9-10.66,1.07C386.74,163.21,385.45,162.07,387.28,161.08Z"/><path class="cls-138" d="M378.66,158c-1.49.49-2.37,2.18-4.15,2.12,1.93-4.6,5-7.51,11-7.29-1,1.91-1.8,3.53-2.63,5.15C381.45,159.16,380.06,158.8,378.66,158Z"/><path class="cls-139" d="M378.66,158l4.18,0c.3.9,1.07,1.07,1.86,1.21-.46,1.29-1.56,1.12-2.58,1.12C380.62,160,379.27,159.53,378.66,158Z"/><path class="cls-140" d="M495.86,162.17A141.45,141.45,0,0,1,466,161.1c-.12-.36-.2-.87,0-1,6-2.9,11.92-6.09,18.13-8.61l10.67-1.07c2.1,3.29,3.19,6.77,2.07,10.68Z"/><path class="cls-141" d="M478.83,140.82a8.43,8.43,0,0,0,5.41,1.06c2.28,3.2,2.88,6.18-1.14,8.54-2.35,2-4.08,5.67-8.19,3.19-.32-2.78.73-5.54.15-8.33C475.43,143.05,477.71,142.43,478.83,140.82Z"/><path class="cls-142" d="M496.88,161.12a36.06,36.06,0,0,1-2.07-10.68l1,0,2.15,1.11a35,35,0,0,1,2.12,16h-2Z"/><path class="cls-143" d="M475.58,153.57c3.06.27,4.87-2.45,7.52-3.15l1,1.09c-5.06,5.07-11.93,6.72-18.15,9.59l-4.45,0,3.2-1.89c2.13-3.06,6.24-2.75,8.75-5.17A2.18,2.18,0,0,1,475.58,153.57Z"/><path class="cls-137" d="M461.73,150.46c0-.72,0-1.44,0-2.16,2.32-2.62,5.43-2.7,8.58-2.66,2.71.91,5.35,1.86,2.41,5.34-3.05,2-6.48,2.43-10,2.28C461.5,152.64,460.86,151.82,461.73,150.46Z"/><path class="cls-144" d="M470.14,146.15l-8.39,2.15c-.2-2.61.17-5.11,3-6.09s5.16,0,6.56,2.78A1.15,1.15,0,0,1,470.14,146.15Z"/><path class="cls-145" d="M470.14,146.15l1.14-1.16,2.86-1c.87-.22,1.1.5,1.48,1,2.26,2.86.68,5.71,0,8.56l-1.3,1a2.77,2.77,0,0,1-3.21-1c-.35-1.39.46-2.29,1.34-3.16C474.76,147.37,471,147.53,470.14,146.15Z"/><path class="cls-146" d="M461.73,150.46a2.28,2.28,0,0,0,1.09,2.12c1.77,1.82,5.57-.68,6.46,3-3.19,2.76-6.45,1.1-9.71.19l-2-3.23c0-.74.07-1.48.1-2.23C459.06,148.21,460.41,148.65,461.73,150.46Z"/><path class="cls-147" d="M475.62,145l-1.48-1c.16-.35.32-.69.47-1,1.45-.64,2.34-2.36,4.22-2.15C479,143.17,476.77,143.67,475.62,145Z"/><path class="cls-148" d="M477.73,137.57c-2.3.59-5-1.3-7,1-1.46-.7-1.37-1.75.07-1.87C473.1,136.55,475.62,135.7,477.73,137.57Z"/><path class="cls-149" d="M447.93,169.64l2.09,1.07c-.09,2.49,2.45,3.38,3.22,5.34.36,2.14.73,4.27,1.09,6.41-.34.36-.69.71-1,1.06.37-4.37-2.52-2.28-4.4-2.22-2.83-1.57-3.83-4.1-3.76-7.2C445.86,172.49,446.47,170.79,447.93,169.64Z"/><path class="cls-57" d="M445.8,173.87c.22,2.82,2.15,4.92,3.1,7.44-9.32,3.07-19,4.41-28.68,5.32v-9.54c2,.33,1.53,2.33,3,3.53a9.83,9.83,0,0,0-1.94-7.82c6.89-5.86,15.17-5.54,23.43-5.3l1,2.18C447.09,171,446.62,172.45,445.8,173.87Z"/><path class="cls-150" d="M451.08,184.57l-3.14,1.17C448.4,183.78,449.26,182.89,451.08,184.57Z"/><path class="cls-151" d="M426.58,189.91l-5.13-.17C423.21,188.41,424.92,188.28,426.58,189.91Z"/><path class="cls-152" d="M387.13,164.31c3.56-.3,7.26.82,10.66-1.07.15,1.87-1.52,2.8-2.17,4.25C392.39,167.5,388.88,168.26,387.13,164.31Z"/><path class="cls-153" d="M439.29,212.26c-2,3.3-4.61,2.75-7.38,1.14C434.2,211.93,436.8,212.42,439.29,212.26Z"/><path class="cls-154" d="M445.8,173.87l-.12-4.19c.73-1.08,1.48-1.2,2.25,0C448,171.41,447.77,173.09,445.8,173.87Z"/><path class="cls-155" d="M459.57,155.8c3.2-.53,6.63,1.06,9.64-1.09.41-1,1-1.59,2.12-1.08l2.95,1c-2.59,2.76-6.19,3.4-9.54,4.58Z"/><path class="cls-156" d="M471.33,153.63l-2.12,1.08c-2.3-.21-5,.82-6.39-2.13l9.59-2.14Z"/><path class="cls-157" d="M445.45,178.76c0,1.34-.61,2-1.52,2.18s-1.24-.53-1.26-1.29a1.72,1.72,0,0,1,1.43-1.9C444.55,177.7,445.09,178.48,445.45,178.76Z"/></g></g></svg>