<svg xmlns="http://www.w3.org/2000/svg" viewBox="0 0 609.13 426.95"><defs><style>.cls-1,.cls-3{fill:#cc78b1;}.cls-2{fill:#fccaee;}.cls-3{font-size:134px;font-family:CamarRegular, Camar;}</style></defs><g id="Layer_2" data-name="Layer 2"><g id="Layer_1-2" data-name="Layer 1"><path class="cls-1" d="M607.66,333.84c-2.29,0-5.58,0-9.21,0-7.44,0-16.31,0-21,.34-6,.49-7.85-1-7.83-7.51q.38-156.53.17-313C569.8,2.6,567.31,0,556.52,0H49.21C38.28,0,35.76,2.55,35.76,13.49V228.17c0,33.4-.09,66.81.11,100.22,0,4.56-1,6.15-5.77,5.85a195,195,0,0,0-19.79-.05C3.2,334.44.25,337.52.09,344.58c-.15,6.18-.06,12.37,0,18.56.16,38.05,25.62,63.76,63.57,63.77q239.12.1,478.23,0a71.48,71.48,0,0,0,19.57-2.27c16.35-4.59,28-15.12,37-28.95C611.72,368.65,609.69,358.16,607.66,333.84Zm-22.44,48a43.09,43.09,0,0,1-38.36,27.54c-2.47.09-5,.1-7.42.1H76.72c-2.89,0-5.77-.2-8.65-.3-10.79-9.18-16.27-20.9-16.9-35-.14-3.07.34-5.08,4-5.57,18.12-2.43,36.22-5,54.32-7.55l67.63-9.56c9.28,0,18.56.05,27.83-.24,3.72-.12,4.52,1.39,4.46,4.7-.16,8.66-.14,17.32,0,26,.1,7.3,2.92,10.2,10.13,10.2q83.21.07,166.41,0c7.45,0,10.47-3.07,10.56-10.52.1-8.46.17-16.91-.05-25.36-.09-3.6.7-5,4.72-5q91.25.19,182.49.1c2.18,0,4.73-.64,4.69,3.06C588.2,363.69,588.71,373,585.22,381.88ZM552.64,24.48q-.35,150.6,0,301.2c0,5.62-1.37,7.06-7,7.06q-221.73-.25-443.47-.14c-2,0-4.11-.13-6.17-.19q0-141,0-281.91c0-3.7,0-6.4,4.81-7.54,35-8.29,69.89-16.92,104.82-25.45,2.27-.06,4.53-.17,6.8-.17q166.38,0,332.75-.14C550.83,17.19,552.65,18.27,552.64,24.48ZM379.11,371.92c.12,4.25-3.2,2.93-5.33,2.93-23.69.08-47.37,0-71.06,0-23.49,0-47-.12-70.45.11-4.54,0-6.38-1-5.87-5.77a59.61,59.61,0,0,0,0-11.72c-.45-4.77,1-6.28,6.07-6.25,41.19.21,82.39.12,123.59.12,1.85,0,3.72-.12,5.56,0,5.67.45,13.68-2.68,16.46,1.25C381.51,357.5,378.92,365.36,379.11,371.92Z"/><path class="cls-2" d="M205.52,17.51C170.59,26,135.69,34.67,100.7,43c-4.84,1.14-4.82,3.84-4.81,7.54q.08,141,0,281.91c-12.77.06-25.54,0-38.3.25-3.38.06-5-.8-4.69-4.46s0-7.41,0-11.12V25.38c0-8.1,0-8.11,7.94-8.11H201.85C203.07,17.27,204.3,17.43,205.52,17.51Z"/><path class="cls-2" d="M51.17,374.2c.63,14.11,6.11,25.83,16.9,35C40.9,412.43,23,394.9,18.76,376.61c-1.69-7.35-.88-14.77-1.08-22.17-.05-2,.81-3.11,2.91-3.09,1,0,2.06,0,3.09,0q75.79,0,151.58-.05a14.18,14.18,0,0,1,1.82.24l-67.63,9.56c-18.1,2.54-36.2,5.12-54.32,7.55C51.51,369.12,51,371.13,51.17,374.2Z"/><text class="cls-3" transform="translate(147.62 217.94)">UI/UX</text></g></g></svg>